<svg width="54" height="52" viewBox="0 0 54 52" fill="none" xmlns="http://www.w3.org/2000/svg">
<path d="M21.0272 15.794C21.0467 15.923 20.9816 15.9004 20.9763 16.0125L21.011 16.0014C21.3405 16.075 21.0045 16.1226 20.8436 16.4637L20.873 16.4729C21.0525 16.3791 21.2638 15.9188 21.4448 15.7388C21.8947 15.2909 22.4326 14.7008 22.9883 14.3746C23.6172 14.0055 23.9201 13.8049 24.496 13.4121C24.6241 13.3247 25.0817 13.1288 25.1456 12.9819C25.3305 12.5566 25.0491 11.617 25.3223 11.2011C25.4326 11.0334 25.6161 11.2098 25.8248 11.0469L25.8943 11.0693C26.1887 12.7224 25.5864 12.9483 24.3392 13.8389C21.7632 15.6783 21.4521 18.0603 21.4514 20.8938L21.4513 40.6986C21.4505 42.1119 21.5944 43.2139 22.9328 44.1131C23.0402 44.1852 23.2259 44.295 23.3092 44.3807L23.4216 44.4103C20.6675 44.4667 19.9537 42.8454 19.9507 40.4149L19.9501 20.8553C19.9499 19.1555 19.9499 17.2444 21.0272 15.794ZM20.5137 38.4966C20.5145 38.9119 20.5965 42.6659 20.7349 42.9019C20.8748 42.9907 20.8779 42.8379 20.9284 43.0776C21.4513 43.0058 20.7813 41.8511 21.3575 42.5036L21.4625 42.5034C21.5011 42.3882 21.391 42.1409 21.3746 41.9878C21.3375 41.6397 21.3993 41.066 21.3411 40.7496L21.3224 40.7352L21.3176 40.7442L21.3051 40.6515L21.2825 40.6637C21.287 40.7687 21.3228 41.3234 21.2916 41.3716C21.1235 41.0327 21.1003 40.5866 21.0235 40.2279C20.8913 39.6107 20.7849 39.5975 20.711 38.8632C20.6925 38.678 20.6309 38.7058 20.5909 38.5464L20.5137 38.4966Z" fill="#C5E0FF"/>
<path d="M8.3974 25.162C8.40739 25.2497 8.30646 25.3964 8.28635 25.5572L8.3107 25.5677L8.33629 25.5475C8.53653 25.5371 8.49968 25.4582 8.63659 25.3167L8.67563 25.3806C8.70215 25.3796 9.71767 24.0971 10.065 23.9704L10.0885 23.9941L10.0546 24.0533L10.0928 24.0978L10.0772 24.1303C10.1144 24.186 10.2145 24.1386 10.3549 24.1787C10.3556 24.2683 10.2757 24.4001 10.2335 24.5032L10.2609 24.5025C10.7983 24.0339 10.5803 22.2881 10.6916 22.1709C10.6871 22.4129 10.664 23.6197 10.7088 23.6821L10.7587 23.6597C10.6005 24.9247 9.66058 25.0699 9.52628 26.373C9.4321 27.2869 9.47216 28.2742 9.47322 29.1958L9.47239 41.7874C9.47162 42.6645 9.35062 43.487 10.1064 44.0865C10.2153 44.1729 10.3305 44.2698 10.3347 44.4103C7.76636 44.43 7.85273 43.7878 7.8549 41.4288L7.85405 28.3322C7.85405 27.2441 7.79093 26.1357 8.3974 25.162Z" fill="#C5E0FF"/>
<path d="M43.5312 19.833C44.874 20.063 44.2192 21.5567 44.3975 21.6807H44.3984C45.1421 21.6446 45.1794 22.3758 44.3984 22.3926C44.3993 23.8194 44.4045 23.4464 45.3711 24.3818C46.3402 25.3197 46.9987 26.6516 47.0117 28.001L47.0127 31.0312C47.0127 31.4373 47.0417 32.226 47.0117 32.5879C46.1574 33.5509 46.2635 31.7533 46.2637 31.415L46.2656 29.001C46.2675 27.1137 46.1768 26.1747 44.6465 24.7051C43.599 23.6992 43.6895 23.8158 43.6934 22.3926H41.7109C41.7104 22.7046 41.6891 23.2943 41.7109 23.583C41.5235 24.2812 41.0028 24.5221 40.5518 25.0322C39.1285 26.6422 39.3595 28.2505 39.3613 30.2256V40.0879C39.3612 41.0475 39.3473 42.0123 39.376 42.9707C39.4244 44.5833 41.351 44.5233 42.5391 44.4102C42.9013 44.4622 44.2686 44.4371 44.7773 44.4316C46.443 44.4135 46.264 42.5322 46.2637 41.4873V39.0781C46.2623 38.6209 46.2556 38.16 46.2666 37.7031C46.2812 37.1042 46.9531 37.1711 46.9824 37.5684C47.0282 38.1893 47.0118 38.8343 47.0117 39.4561L47.0166 42.874C47.0134 43.5443 46.7691 44.0509 46.2881 44.5195C45.2807 45.502 42.5924 45.1029 41.1582 45.1455C39.9612 45.1812 38.877 44.4104 38.6445 43.2666C38.5534 42.8177 38.601 41.9279 38.6016 41.4365L38.6025 27.8799C38.6109 26.7411 39.1009 25.6526 39.79 24.7383C40.8469 23.2739 40.9382 24.5133 40.9688 22.3926C40.1991 22.4378 40.1092 21.6608 41.0518 21.6807C41.0504 20.766 40.8156 19.8709 42.1094 19.833C42.5727 19.8326 43.0709 19.8229 43.5312 19.833ZM28.3877 6.71289C29.7987 6.71301 30.3766 6.75142 30.3613 8.27637C30.3534 9.05463 30.3754 9.83713 30.3594 10.6152C30.3518 10.9827 30.0774 10.9964 29.7695 10.9971V12.3027C32.3344 13.0972 34.3293 16.0251 34.7461 18.4795C34.8244 18.9405 34.8247 19.8567 34.8252 20.3203L34.8262 39.9541C34.8264 40.5713 34.84 41.1614 34.7725 41.7852C34.5113 44.1934 32.4867 45.148 30.2461 45.1455L26.9473 45.1465C26.6199 45.1467 26.2973 45.1516 25.9668 45.1348C25.6155 45.1174 25.2003 44.4062 26.4082 44.4092L31.0889 44.4102C32.4805 44.439 33.8914 43.0747 34.0449 41.7773C34.131 41.0496 34.0898 40.0587 34.0898 39.3027L34.085 19.7246C33.9752 16.9589 32.659 14.5198 30.0137 13.2061C28.6263 12.5173 29.002 12.7863 29.0088 10.9971H26.8564C26.2211 10.9901 25.572 11.0136 24.9414 10.9971C24.9507 13.1901 25.2278 12.3789 23.8164 13.2539C23.036 13.6773 21.3396 14.9414 21.0273 15.7939C19.95 17.2444 19.95 19.1557 19.9502 20.8555V40.415C19.9532 42.8455 20.6678 44.4666 23.4219 44.4102C23.9656 44.4751 23.8915 45.0348 23.6191 45.0938C21.9166 45.4587 20.1139 44.3071 19.5205 42.8379C19.1077 41.8157 19.2186 41.1086 19.2197 40.2246L19.2207 20.2324C19.2218 16.5601 20.4304 13.847 24.1816 12.3027V10.9971C23.3653 10.9412 23.5927 10.3514 23.5908 9.76953L23.5859 8.46582C23.5812 6.99112 23.7699 6.71138 25.335 6.71191L28.3877 6.71289ZM10.6797 19.2656C12.3317 19.1859 13.103 19.18 13.0195 20.9248C13.6102 21.0324 13.5574 21.6155 12.9941 21.6719C12.807 21.8817 13.0533 22.8459 13.3223 23.0166C14.5434 23.7906 15.2824 25.1662 15.4141 26.5498C15.4903 28.1618 14.6349 27.662 14.6846 26.8145C14.7345 25.9641 14.1752 24.7438 13.541 24.1562C12.5128 23.2039 12.1681 23.2032 12.2207 21.6807C11.668 21.6086 10.9068 21.6845 10.335 21.6807C10.7522 23.7438 8.96998 23.7177 8.39746 25.1621C7.79103 26.1357 7.85351 27.244 7.85352 28.332L7.85449 41.4287C7.85232 43.7877 7.76664 44.4299 10.335 44.4102L11.9941 44.4121C15.7634 44.4187 14.2296 42.352 14.791 41.8984C15.9038 41.2578 16.0279 45.1242 12.6045 45.1445L10.6318 45.1465C7.47327 45.1428 7.08384 44.5324 7.0918 41.5684L7.08887 27.1816C7.09184 25.8622 7.58829 24.758 8.5 23.7705C9.35854 22.8406 9.63785 23.1444 9.62207 21.6807C8.93863 21.6431 8.8866 20.9103 9.62207 20.9248C9.5425 20.1262 9.59605 19.3179 10.6797 19.2656ZM20.5908 38.5469C20.6308 38.7058 20.6924 38.6782 20.7109 38.8633C20.7847 39.5974 20.8912 39.6108 21.0234 40.2275C21.1002 40.5863 21.1239 41.0332 21.292 41.3721C21.3231 41.3239 21.2868 40.7698 21.2822 40.6641L21.3047 40.6514L21.3174 40.7441L21.3223 40.7354L21.3408 40.75C21.399 41.0664 21.3379 41.6403 21.375 41.9883C21.3915 42.1415 21.5015 42.3888 21.4629 42.5039H21.3574C20.7814 41.8515 21.4509 43.0048 20.9287 43.0771C20.8783 42.838 20.8743 42.9912 20.7344 42.9023C20.596 42.6665 20.5146 38.9146 20.5137 38.4971L20.5908 38.5469ZM14.9258 32.248C15.7032 32.2694 15.4023 33.7743 15.4023 34.4326L15.4014 39.2471C15.4012 39.6114 15.5219 40.1255 15.1836 40.3682C14.7054 40.4403 14.6752 40.1428 14.6768 39.7812C14.6875 37.3349 14.6402 34.88 14.6992 32.4365C14.7017 32.3554 14.8618 32.28 14.9258 32.248ZM30.9414 37.6943C31.1672 37.6483 31.39 37.786 31.4404 38.0029C31.4906 38.2196 31.3503 38.4352 31.126 38.4863C30.9783 38.5199 30.8229 38.4743 30.7197 38.3672C30.6166 38.2601 30.5812 38.1079 30.627 37.9688C30.6728 37.8296 30.7931 37.7246 30.9414 37.6943ZM46.5713 34.2266C47.2521 34.2247 47.1776 35.6031 46.7168 35.8398C46.0708 35.9013 46.0475 34.4424 46.5713 34.2266ZM30.959 24.0713C31.6407 24.1113 31.3877 25.4668 31.3877 26.0176L31.3896 34.8408C31.3901 35.1293 31.3924 35.2581 31.1074 35.3818C30.8935 35.3576 30.8009 35.3347 30.6885 35.1514C30.6048 34.3044 30.6229 24.4158 30.6924 24.2656C30.751 24.1512 30.844 24.1197 30.959 24.0713ZM14.9258 29.0986C15.7155 29.0249 15.4636 30.5477 15.1846 30.7432C14.3971 30.8088 14.5719 29.2659 14.9258 29.0986ZM27.5049 15.5674C28.7445 15.5209 30.1792 16.5324 30.7764 17.5293C31.3782 18.534 31.4262 19.3976 31.3848 20.5234C31.3694 20.9415 31.5495 21.5181 31.1074 21.7666C30.3469 21.797 30.7057 19.7039 30.582 19.0361C30.0058 16.2013 27.0321 16.5438 27.2207 15.8076C27.2524 15.6838 27.3951 15.6155 27.5049 15.5674ZM41.9619 20.4668C41.4749 20.562 41.6629 21.339 41.7109 21.6807H43.6934C43.6858 21.1788 43.9523 20.4992 43.2744 20.4668H41.9619ZM11.1904 19.9531C10.2445 19.9399 10.3211 20.1105 10.335 20.9248H12.3105C12.3073 19.8822 12.2774 19.9681 11.1904 19.9531ZM28.6484 7.44238C28.4614 7.47074 27.9611 7.4458 27.7393 7.44434L25.8945 7.44238V10.2725H24.3682V10.2734H29.585L29.5859 8.66504C29.5874 7.49189 29.7903 7.42317 28.6484 7.44238Z" fill="#D7C2F8"/>
<path d="M43.5312 19.833C44.874 20.063 44.2192 21.5567 44.3975 21.6807H44.3984C45.1421 21.6446 45.1794 22.3758 44.3984 22.3926C44.3993 23.8194 44.4045 23.4464 45.3711 24.3818C46.3402 25.3197 46.9987 26.6516 47.0117 28.001L47.0127 31.0312C47.0127 31.4373 47.0417 32.226 47.0117 32.5879C46.1574 33.5509 46.2635 31.7533 46.2637 31.415L46.2656 29.001C46.2675 27.1137 46.1768 26.1747 44.6465 24.7051C43.599 23.6992 43.6895 23.8158 43.6934 22.3926H41.7109C41.7104 22.7046 41.6891 23.2943 41.7109 23.583C41.5235 24.2812 41.0028 24.5221 40.5518 25.0322C39.1285 26.6422 39.3595 28.2505 39.3613 30.2256V40.0879C39.3612 41.0475 39.3473 42.0123 39.376 42.9707C39.4244 44.5833 41.351 44.5233 42.5391 44.4102C42.9013 44.4622 44.2686 44.4371 44.7773 44.4316C46.443 44.4135 46.264 42.5322 46.2637 41.4873V39.0781C46.2623 38.6209 46.2556 38.16 46.2666 37.7031C46.2812 37.1042 46.9531 37.1711 46.9824 37.5684C47.0282 38.1893 47.0118 38.8343 47.0117 39.4561L47.0166 42.874C47.0134 43.5443 46.7691 44.0509 46.2881 44.5195C45.2807 45.502 42.5924 45.1029 41.1582 45.1455C39.9612 45.1812 38.877 44.4104 38.6445 43.2666C38.5534 42.8177 38.601 41.9279 38.6016 41.4365L38.6025 27.8799C38.6109 26.7411 39.1009 25.6526 39.79 24.7383C40.8469 23.2739 40.9382 24.5133 40.9688 22.3926C40.1991 22.4378 40.1092 21.6608 41.0518 21.6807C41.0504 20.766 40.8156 19.8709 42.1094 19.833C42.5727 19.8326 43.0709 19.8229 43.5312 19.833ZM28.3877 6.71289C29.7987 6.71301 30.3766 6.75142 30.3613 8.27637C30.3534 9.05463 30.3754 9.83713 30.3594 10.6152C30.3518 10.9827 30.0774 10.9964 29.7695 10.9971V12.3027C32.3344 13.0972 34.3293 16.0251 34.7461 18.4795C34.8244 18.9405 34.8247 19.8567 34.8252 20.3203L34.8262 39.9541C34.8264 40.5713 34.84 41.1614 34.7725 41.7852C34.5113 44.1934 32.4867 45.148 30.2461 45.1455L26.9473 45.1465C26.6199 45.1467 26.2973 45.1516 25.9668 45.1348C25.6155 45.1174 25.2003 44.4062 26.4082 44.4092L31.0889 44.4102C32.4805 44.439 33.8914 43.0747 34.0449 41.7773C34.131 41.0496 34.0898 40.0587 34.0898 39.3027L34.085 19.7246C33.9752 16.9589 32.659 14.5198 30.0137 13.2061C28.6263 12.5173 29.002 12.7863 29.0088 10.9971H26.8564C26.2211 10.9901 25.572 11.0136 24.9414 10.9971C24.9507 13.1901 25.2278 12.3789 23.8164 13.2539C23.036 13.6773 21.3396 14.9414 21.0273 15.7939C19.95 17.2444 19.95 19.1557 19.9502 20.8555V40.415C19.9532 42.8455 20.6678 44.4666 23.4219 44.4102C23.9656 44.4751 23.8915 45.0348 23.6191 45.0938C21.9166 45.4587 20.1139 44.3071 19.5205 42.8379C19.1077 41.8157 19.2186 41.1086 19.2197 40.2246L19.2207 20.2324C19.2218 16.5601 20.4304 13.847 24.1816 12.3027V10.9971C23.3653 10.9412 23.5927 10.3514 23.5908 9.76953L23.5859 8.46582C23.5812 6.99112 23.7699 6.71138 25.335 6.71191L28.3877 6.71289ZM10.6797 19.2656C12.3317 19.1859 13.103 19.18 13.0195 20.9248C13.6102 21.0324 13.5574 21.6155 12.9941 21.6719C12.807 21.8817 13.0533 22.8459 13.3223 23.0166C14.5434 23.7906 15.2824 25.1662 15.4141 26.5498C15.4903 28.1618 14.6349 27.662 14.6846 26.8145C14.7345 25.9641 14.1752 24.7438 13.541 24.1562C12.5128 23.2039 12.1681 23.2032 12.2207 21.6807C11.668 21.6086 10.9068 21.6845 10.335 21.6807C10.7522 23.7438 8.96998 23.7177 8.39746 25.1621C7.79103 26.1357 7.85351 27.244 7.85352 28.332L7.85449 41.4287C7.85232 43.7877 7.76664 44.4299 10.335 44.4102L11.9941 44.4121C15.7634 44.4187 14.2296 42.352 14.791 41.8984C15.9038 41.2578 16.0279 45.1242 12.6045 45.1445L10.6318 45.1465C7.47327 45.1428 7.08384 44.5324 7.0918 41.5684L7.08887 27.1816C7.09184 25.8622 7.58829 24.758 8.5 23.7705C9.35854 22.8406 9.63785 23.1444 9.62207 21.6807C8.93863 21.6431 8.8866 20.9103 9.62207 20.9248C9.5425 20.1262 9.59605 19.3179 10.6797 19.2656ZM20.5908 38.5469C20.6308 38.7058 20.6924 38.6782 20.7109 38.8633C20.7847 39.5974 20.8912 39.6108 21.0234 40.2275C21.1002 40.5863 21.1239 41.0332 21.292 41.3721C21.3231 41.3239 21.2868 40.7698 21.2822 40.6641L21.3047 40.6514L21.3174 40.7441L21.3223 40.7354L21.3408 40.75C21.399 41.0664 21.3379 41.6403 21.375 41.9883C21.3915 42.1415 21.5015 42.3888 21.4629 42.5039H21.3574C20.7814 41.8515 21.4509 43.0048 20.9287 43.0771C20.8783 42.838 20.8743 42.9912 20.7344 42.9023C20.596 42.6665 20.5146 38.9146 20.5137 38.4971L20.5908 38.5469ZM14.9258 32.248C15.7032 32.2694 15.4023 33.7743 15.4023 34.4326L15.4014 39.2471C15.4012 39.6114 15.5219 40.1255 15.1836 40.3682C14.7054 40.4403 14.6752 40.1428 14.6768 39.7812C14.6875 37.3349 14.6402 34.88 14.6992 32.4365C14.7017 32.3554 14.8618 32.28 14.9258 32.248ZM30.9414 37.6943C31.1672 37.6483 31.39 37.786 31.4404 38.0029C31.4906 38.2196 31.3503 38.4352 31.126 38.4863C30.9783 38.5199 30.8229 38.4743 30.7197 38.3672C30.6166 38.2601 30.5812 38.1079 30.627 37.9688C30.6728 37.8296 30.7931 37.7246 30.9414 37.6943ZM46.5713 34.2266C47.2521 34.2247 47.1776 35.6031 46.7168 35.8398C46.0708 35.9013 46.0475 34.4424 46.5713 34.2266ZM30.959 24.0713C31.6407 24.1113 31.3877 25.4668 31.3877 26.0176L31.3896 34.8408C31.3901 35.1293 31.3924 35.2581 31.1074 35.3818C30.8935 35.3576 30.8009 35.3347 30.6885 35.1514C30.6048 34.3044 30.6229 24.4158 30.6924 24.2656C30.751 24.1512 30.844 24.1197 30.959 24.0713ZM14.9258 29.0986C15.7155 29.0249 15.4636 30.5477 15.1846 30.7432C14.3971 30.8088 14.5719 29.2659 14.9258 29.0986ZM27.5049 15.5674C28.7445 15.5209 30.1792 16.5324 30.7764 17.5293C31.3782 18.534 31.4262 19.3976 31.3848 20.5234C31.3694 20.9415 31.5495 21.5181 31.1074 21.7666C30.3469 21.797 30.7057 19.7039 30.582 19.0361C30.0058 16.2013 27.0321 16.5438 27.2207 15.8076C27.2524 15.6838 27.3951 15.6155 27.5049 15.5674ZM41.9619 20.4668C41.4749 20.562 41.6629 21.339 41.7109 21.6807H43.6934C43.6858 21.1788 43.9523 20.4992 43.2744 20.4668H41.9619ZM11.1904 19.9531C10.2445 19.9399 10.3211 20.1105 10.335 20.9248H12.3105C12.3073 19.8822 12.2774 19.9681 11.1904 19.9531ZM28.6484 7.44238C28.4614 7.47074 27.9611 7.4458 27.7393 7.44434L25.8945 7.44238V10.2725H24.3682V10.2734H29.585L29.5859 8.66504C29.5874 7.49189 29.7903 7.42317 28.6484 7.44238Z" fill="#5DA9FF"/>
</svg>
