<svg width="52" height="52" viewBox="0 0 52 52" fill="none" xmlns="http://www.w3.org/2000/svg">
<path d="M27.3114 30.9375C29.4339 30.9318 30.0139 30.9717 30.0126 33.2666L30.0116 41.7803C30.9586 41.7931 31.9236 41.7777 32.8729 41.7803C33.7347 39.1496 37.018 39.0286 38.1288 41.7803C38.6164 41.7639 39.5582 41.827 39.9716 41.7803L39.9745 40.3994C39.975 40.0798 40.0385 39.2475 39.7762 39.042C38.8165 38.2904 37.977 38.2665 37.0262 37.3086H33.3329C32.885 37.3085 31.1797 37.5286 31.1669 36.9336C31.1553 36.3744 31.0306 32.7638 31.2958 32.4902C31.6684 32.338 34.4421 32.3887 34.8944 32.4111C35.1385 32.6704 35.5421 33.3615 35.7616 33.6982L37.3505 36.1221C37.8443 36.8831 37.7471 36.9987 38.5731 37.3936C40.6911 38.4061 40.8584 38.3619 40.8524 40.5947C40.8515 40.9441 40.9769 42.2748 40.7118 42.5186C40.4708 42.7394 38.5619 42.6541 38.1288 42.6533C37.9593 43.8258 37.5034 44.3469 36.5985 44.8154L36.1825 45.0146C34.7441 45.2529 32.7754 44.3007 32.8729 42.6533H22.9315C22.2581 46.4461 17.3696 45.1868 17.5868 42.6533H15.9169C14.9912 42.6621 13.9902 42.795 13.6718 41.5801C13.5602 41.1545 13.4463 39.5466 14.1132 39.6367C14.9295 39.7226 14.2497 41.2148 14.619 41.6729C14.7655 41.8388 15.5751 41.7826 15.7997 41.7822L17.5868 41.7803C18.2589 39.0907 21.9143 38.8941 22.9315 41.7803H29.1385L29.1366 32.6221C29.1333 32.2128 29.0794 32.0829 28.7772 31.7998C27.7214 31.8342 26.439 31.7997 25.371 31.7998H16.0848C15.7063 31.7995 14.8353 31.6353 14.6063 32.0459C14.3357 32.5334 14.9446 36.7313 13.8124 35.7354C13.493 35.4542 13.6405 34.3179 13.6395 33.9229C13.6345 32.2506 13.3812 30.9604 15.5155 30.9395L27.3114 30.9375ZM20.0731 40.5576C19.0612 40.6426 18.3095 41.5311 18.3934 42.543C18.4774 43.5548 19.3649 44.3075 20.3768 44.2246C21.3901 44.1414 22.1443 43.2524 22.0604 42.2393C21.9763 41.226 21.0862 40.4728 20.0731 40.5576ZM36.6444 41.0654C35.918 40.4451 34.8322 40.5077 34.1815 41.207C33.5309 41.9065 33.5465 42.9941 34.2177 43.6738C34.8888 44.3536 35.9768 44.3839 36.6844 43.7422C36.7592 43.6744 36.8283 43.6 36.8905 43.5205L36.9921 43.376C37.4631 42.6351 37.3256 41.6472 36.6444 41.0654ZM37.3837 41.8418V41.8428V41.8418ZM37.2323 41.6758L37.2635 41.6787L37.3075 41.79L37.2635 41.6777L37.2323 41.6748V41.6758ZM13.9384 36.8223C14.8152 36.7504 14.6587 38.369 14.2079 38.6338C13.3744 38.754 13.4874 37.0695 13.9384 36.8223ZM12.7831 24.2773C12.2063 22.4208 12.3386 22.5578 14.0575 23.1279L16.1932 23.8457C17.5643 24.3114 18.1456 24.1986 17.1259 25.5391L16.4364 26.4561C16.2068 26.7635 14.8297 28.9698 14.3954 28.6172C14.0858 28.3656 13.8763 27.5887 13.7635 27.2188C11.3558 27.8599 9.53293 29.3029 9.16394 31.9482C9.12251 32.246 9.15436 33.0681 9.02527 33.2568C8.71793 33.7051 8.2398 33.3593 8.21667 32.9102C8.07196 30.0954 10.1324 27.4878 12.7391 26.6016C13.0305 26.5025 13.3259 26.4054 13.6356 26.3916C13.8795 26.2961 14.1066 26.1714 14.3192 26.3916C14.4252 26.5004 14.6313 27.1939 14.705 27.3916C15.2268 26.609 15.9721 25.6338 16.5585 24.8789C15.5709 24.4658 14.5085 24.207 13.5067 23.8193C13.5874 24.0897 13.6726 24.3437 13.7635 24.6104C13.556 25.166 13.4115 25.0198 12.8788 25.1299C8.05131 26.1284 5.40556 31.4531 7.35046 35.9482C7.48261 36.2536 7.03658 37.2709 6.42664 35.8516C4.5051 30.7581 7.5857 25.4846 12.7831 24.2773ZM32.0096 36.4414L34.9745 36.4404C35.4542 36.4402 36.0314 36.4243 36.5018 36.4414C36.4946 36.3679 34.6024 33.4769 34.4432 33.2861H32.0096V36.4414ZM25.2635 8.73242C29.925 5.53615 36.2753 6.56347 39.6913 11.0664C43.1073 15.5694 42.3848 21.962 38.0507 25.5898C33.7165 29.2171 27.2978 28.8018 23.4667 24.6465C21.3832 22.3867 20.3846 19.3336 20.7294 16.2793C21.0743 13.225 22.7286 10.4707 25.2635 8.73242ZM38.869 11.4023C35.6526 7.36827 29.8478 6.54202 25.6337 9.51855C23.2823 11.1794 21.7861 13.7962 21.5468 16.665C21.3076 19.5337 22.3499 22.3612 24.3934 24.3887C28.0561 28.0225 33.9172 28.1699 37.7577 24.7246C41.598 21.2792 42.0853 15.4363 38.869 11.4023ZM31.1552 24.6104C31.8988 24.5715 31.8672 25.8917 31.3876 26.1377C30.6607 26.2558 30.5045 24.9261 31.1552 24.6104ZM23.6942 24.792C23.6937 24.7911 23.6928 24.7899 23.6923 24.7891L23.6942 24.792ZM31.1552 12.7227C31.431 12.6988 31.4914 12.7623 31.6669 12.9717C31.6926 13.2361 31.6684 13.9026 31.6678 14.207L31.6669 16.8516C32.1173 17.1662 34.3151 18.4098 34.5028 18.668C34.6907 18.9266 34.513 19.1473 34.2889 19.2852C33.9003 19.4141 33.1942 18.8004 32.8641 18.6025C32.2124 18.2121 30.8388 17.6903 30.8026 16.9316C30.7824 16.5073 30.7614 13.1248 30.8241 12.9707C30.8802 12.8331 31.0304 12.7811 31.1552 12.7227ZM39.7948 16.9854C40.1151 17.3265 40.1957 17.7578 39.6317 17.8525C39.4129 17.8676 38.9437 17.9194 38.7645 17.835C38.2903 17.6107 38.4785 17.1361 38.8983 16.9854C39.1994 16.9913 39.4959 16.9791 39.7948 16.9854ZM22.8221 16.9854C23.1848 16.9809 23.9496 16.8735 24.1405 17.2012C24.3043 17.4829 24.1159 17.7131 23.8827 17.8525C23.624 17.8721 23.2539 17.8677 22.995 17.8447C22.4437 17.7955 22.3476 17.287 22.8221 16.9854ZM31.0497 8.75195C31.8431 8.54387 31.8657 9.95273 31.3876 10.2129C30.5688 10.4046 30.5956 8.93657 31.0497 8.75195Z" fill="#2400EE"/>
<path d="M27.3114 30.9375C29.4339 30.9318 30.0139 30.9717 30.0126 33.2666L30.0116 41.7803C30.9586 41.7931 31.9236 41.7777 32.8729 41.7803C33.7347 39.1496 37.018 39.0286 38.1288 41.7803C38.6164 41.7639 39.5582 41.827 39.9716 41.7803L39.9745 40.3994C39.975 40.0798 40.0385 39.2475 39.7762 39.042C38.8165 38.2904 37.977 38.2665 37.0262 37.3086H33.3329C32.885 37.3085 31.1797 37.5286 31.1669 36.9336C31.1553 36.3744 31.0306 32.7638 31.2958 32.4902C31.6684 32.338 34.4421 32.3887 34.8944 32.4111C35.1385 32.6704 35.5421 33.3615 35.7616 33.6982L37.3505 36.1221C37.8443 36.8831 37.7471 36.9987 38.5731 37.3936C40.6911 38.4061 40.8584 38.3619 40.8524 40.5947C40.8515 40.9441 40.9769 42.2748 40.7118 42.5186C40.4708 42.7394 38.5619 42.6541 38.1288 42.6533C37.9593 43.8258 37.5034 44.3469 36.5985 44.8154L36.1825 45.0146C34.7441 45.2529 32.7754 44.3007 32.8729 42.6533H22.9315C22.2581 46.4461 17.3696 45.1868 17.5868 42.6533H15.9169C14.9912 42.6621 13.9902 42.795 13.6718 41.5801C13.5602 41.1545 13.4463 39.5466 14.1132 39.6367C14.9295 39.7226 14.2497 41.2148 14.619 41.6729C14.7655 41.8388 15.5751 41.7826 15.7997 41.7822L17.5868 41.7803C18.2589 39.0907 21.9143 38.8941 22.9315 41.7803H29.1385L29.1366 32.6221C29.1333 32.2128 29.0794 32.0829 28.7772 31.7998C27.7214 31.8342 26.439 31.7997 25.371 31.7998H16.0848C15.7063 31.7995 14.8353 31.6353 14.6063 32.0459C14.3357 32.5334 14.9446 36.7313 13.8124 35.7354C13.493 35.4542 13.6405 34.3179 13.6395 33.9229C13.6345 32.2506 13.3812 30.9604 15.5155 30.9395L27.3114 30.9375ZM20.0731 40.5576C19.0612 40.6426 18.3095 41.5311 18.3934 42.543C18.4774 43.5548 19.3649 44.3075 20.3768 44.2246C21.3901 44.1414 22.1443 43.2524 22.0604 42.2393C21.9763 41.226 21.0862 40.4728 20.0731 40.5576ZM36.6444 41.0654C35.918 40.4451 34.8322 40.5077 34.1815 41.207C33.5309 41.9065 33.5465 42.9941 34.2177 43.6738C34.8888 44.3536 35.9768 44.3839 36.6844 43.7422C36.7592 43.6744 36.8283 43.6 36.8905 43.5205L36.9921 43.376C37.4631 42.6351 37.3256 41.6472 36.6444 41.0654ZM37.3837 41.8418V41.8428V41.8418ZM37.2323 41.6758L37.2635 41.6787L37.3075 41.79L37.2635 41.6777L37.2323 41.6748V41.6758ZM13.9384 36.8223C14.8152 36.7504 14.6587 38.369 14.2079 38.6338C13.3744 38.754 13.4874 37.0695 13.9384 36.8223ZM12.7831 24.2773C12.2063 22.4208 12.3386 22.5578 14.0575 23.1279L16.1932 23.8457C17.5643 24.3114 18.1456 24.1986 17.1259 25.5391L16.4364 26.4561C16.2068 26.7635 14.8297 28.9698 14.3954 28.6172C14.0858 28.3656 13.8763 27.5887 13.7635 27.2188C11.3558 27.8599 9.53293 29.3029 9.16394 31.9482C9.12251 32.246 9.15436 33.0681 9.02527 33.2568C8.71793 33.7051 8.2398 33.3593 8.21667 32.9102C8.07196 30.0954 10.1324 27.4878 12.7391 26.6016C13.0305 26.5025 13.3259 26.4054 13.6356 26.3916C13.8795 26.2961 14.1066 26.1714 14.3192 26.3916C14.4252 26.5004 14.6313 27.1939 14.705 27.3916C15.2268 26.609 15.9721 25.6338 16.5585 24.8789C15.5709 24.4658 14.5085 24.207 13.5067 23.8193C13.5874 24.0897 13.6726 24.3437 13.7635 24.6104C13.556 25.166 13.4115 25.0198 12.8788 25.1299C8.05131 26.1284 5.40556 31.4531 7.35046 35.9482C7.48261 36.2536 7.03658 37.2709 6.42664 35.8516C4.5051 30.7581 7.5857 25.4846 12.7831 24.2773ZM32.0096 36.4414L34.9745 36.4404C35.4542 36.4402 36.0314 36.4243 36.5018 36.4414C36.4946 36.3679 34.6024 33.4769 34.4432 33.2861H32.0096V36.4414ZM25.2635 8.73242C29.925 5.53615 36.2753 6.56347 39.6913 11.0664C43.1073 15.5694 42.3848 21.962 38.0507 25.5898C33.7165 29.2171 27.2978 28.8018 23.4667 24.6465C21.3832 22.3867 20.3846 19.3336 20.7294 16.2793C21.0743 13.225 22.7286 10.4707 25.2635 8.73242ZM38.869 11.4023C35.6526 7.36827 29.8478 6.54202 25.6337 9.51855C23.2823 11.1794 21.7861 13.7962 21.5468 16.665C21.3076 19.5337 22.3499 22.3612 24.3934 24.3887C28.0561 28.0225 33.9172 28.1699 37.7577 24.7246C41.598 21.2792 42.0853 15.4363 38.869 11.4023ZM31.1552 24.6104C31.8988 24.5715 31.8672 25.8917 31.3876 26.1377C30.6607 26.2558 30.5045 24.9261 31.1552 24.6104ZM23.6942 24.792C23.6937 24.7911 23.6928 24.7899 23.6923 24.7891L23.6942 24.792ZM31.1552 12.7227C31.431 12.6988 31.4914 12.7623 31.6669 12.9717C31.6926 13.2361 31.6684 13.9026 31.6678 14.207L31.6669 16.8516C32.1173 17.1662 34.3151 18.4098 34.5028 18.668C34.6907 18.9266 34.513 19.1473 34.2889 19.2852C33.9003 19.4141 33.1942 18.8004 32.8641 18.6025C32.2124 18.2121 30.8388 17.6903 30.8026 16.9316C30.7824 16.5073 30.7614 13.1248 30.8241 12.9707C30.8802 12.8331 31.0304 12.7811 31.1552 12.7227ZM39.7948 16.9854C40.1151 17.3265 40.1957 17.7578 39.6317 17.8525C39.4129 17.8676 38.9437 17.9194 38.7645 17.835C38.2903 17.6107 38.4785 17.1361 38.8983 16.9854C39.1994 16.9913 39.4959 16.9791 39.7948 16.9854ZM22.8221 16.9854C23.1848 16.9809 23.9496 16.8735 24.1405 17.2012C24.3043 17.4829 24.1159 17.7131 23.8827 17.8525C23.624 17.8721 23.2539 17.8677 22.995 17.8447C22.4437 17.7955 22.3476 17.287 22.8221 16.9854ZM31.0497 8.75195C31.8431 8.54387 31.8657 9.95273 31.3876 10.2129C30.5688 10.4046 30.5956 8.93657 31.0497 8.75195Z" fill="#5DA9FF"/>
</svg>
