<svg width="40" height="40" viewBox="0 0 40 40" fill="none" xmlns="http://www.w3.org/2000/svg">
<g clip-path="url(#clip0_38_8294)">
<mask id="mask0_38_8294" style="mask-type:luminance" maskUnits="userSpaceOnUse" x="0" y="0" width="40" height="40">
<path d="M0 3.8147e-06H40V40H0V3.8147e-06Z" fill="white"/>
</mask>
<g mask="url(#mask0_38_8294)">
<path d="M15.6556 1.88383V4.56032C15.6556 5.10938 15.3084 5.59422 14.7929 5.78289C14.3973 5.92774 14.0094 6.08852 13.63 6.26461C13.1316 6.49594 12.543 6.39899 12.1545 6.01047L10.262 4.11797C9.75508 3.6111 8.93328 3.6111 8.42641 4.11797L4.11797 8.42641C3.61117 8.93321 3.61117 9.755 4.11797 10.2619L6.01055 12.1544C6.39906 12.5429 6.49594 13.1316 6.26461 13.6299C6.08859 14.0093 5.92773 14.3972 5.78297 14.7928C5.59422 15.3084 5.10937 15.6555 4.56039 15.6555H1.88391C1.16703 15.6555 0.585938 16.2366 0.585938 16.9535V23.0465C0.585938 23.7633 1.16703 24.3444 1.88391 24.3444H4.56039C5.10937 24.3444 5.59422 24.6916 5.78297 25.2071C5.92773 25.6027 6.08859 25.9906 6.26461 26.37C6.49594 26.8684 6.39906 27.457 6.01055 27.8455L4.11797 29.738C3.61117 30.2449 3.61117 31.0667 4.11797 31.5736L8.42641 35.882C8.93328 36.3889 9.75508 36.3889 10.262 35.882L12.1545 33.9895C12.543 33.6009 13.1316 33.5041 13.63 33.7354C14.0094 33.9115 14.3973 34.0723 14.7929 34.217C15.3084 34.4058 15.6556 34.8906 15.6556 35.4396V38.1161C15.6556 38.833 16.2367 39.4141 16.9535 39.4141H23.0466C23.7634 39.4141 24.3445 38.833 24.3445 38.1161V35.4396C24.3445 34.8906 24.6916 34.4058 25.2072 34.217C25.6028 34.0723 25.9907 33.9115 26.3701 33.7354C26.8684 33.5041 27.4571 33.6009 27.8456 33.9895L29.7381 35.882C30.245 36.3889 31.0668 36.3889 31.5736 35.882L35.882 31.5736C36.3889 31.0667 36.3889 30.2449 35.882 29.738L33.9895 27.8455C33.601 27.457 33.5041 26.8684 33.7354 26.37C33.9115 25.9906 34.0723 25.6027 34.2171 25.2071C34.4058 24.6916 34.8906 24.3444 35.4397 24.3444H38.1162C38.833 24.3444 39.4141 23.7633 39.4141 23.0465V16.9535C39.4141 16.2366 38.833 15.6555 38.1162 15.6555H35.4397C34.8906 15.6555 34.4058 15.3084 34.2171 14.7928C34.0723 14.3972 33.9115 14.0093 33.7354 13.6299C33.5041 13.1316 33.601 12.5429 33.9895 12.1544L35.882 10.2619C36.3889 9.755 36.3889 8.93321 35.882 8.42641L31.5736 4.11797C31.0668 3.6111 30.245 3.6111 29.7381 4.11797L27.8456 6.01047C27.4571 6.39899 26.8684 6.49594 26.3701 6.26461C25.9907 6.08852 25.6028 5.92774 25.2072 5.78289C24.6916 5.59422 24.3445 5.10938 24.3445 4.56032V1.88383C24.3445 1.16704 23.7634 0.585941 23.0466 0.585941H16.9535C16.2367 0.585941 15.6556 1.16704 15.6556 1.88383Z" stroke="#5DA9FF" stroke-width="1.2" stroke-miterlimit="10" stroke-linecap="round" stroke-linejoin="round"/>
</g>
<path d="M23.2774 12.1391L16.7257 12.1391C16.3639 12.1392 16.0705 11.7893 16.0705 11.3577L16.0705 9.01335C16.0706 8.58176 16.3639 8.23193 16.7257 8.23188L23.2774 8.23188C23.6391 8.23188 23.9325 8.58177 23.9325 9.01335L23.9325 11.3577C23.9325 11.7893 23.6392 12.1391 23.2774 12.1391Z" stroke="#5DA9FF" stroke-width="1.2" stroke-miterlimit="10" stroke-linecap="round" stroke-linejoin="round"/>
<path d="M17.3822 12.1392L13.4512 17.6094L13.4512 27.176" stroke="#5DA9FF" stroke-width="1.2" stroke-miterlimit="10" stroke-linecap="round" stroke-linejoin="round"/>
<path d="M22.6412 12.1391L26.5722 17.6093L26.5722 27.1761" stroke="#5DA9FF" stroke-width="1.2" stroke-miterlimit="10" stroke-linecap="round" stroke-linejoin="round"/>
<path d="M13.4512 17.6094H26.5545" stroke="#5DA9FF" stroke-width="1.2" stroke-miterlimit="10" stroke-linejoin="round"/>
<path d="M16.8916 23.9193H16.2916V23.9193L16.8916 23.9193ZM16.8916 24.5423L16.4424 24.9401C16.5507 25.0623 16.704 25.1351 16.8671 25.1418C17.0302 25.1484 17.189 25.0883 17.3069 24.9754L16.8916 24.5423ZM18.3984 23.9288C18.6376 23.6995 18.6456 23.3197 18.4162 23.0805C18.1869 22.8413 17.8071 22.8333 17.5679 23.0626L17.9831 23.4957L18.3984 23.9288ZM16.414 23.098C16.1943 22.8499 15.8151 22.8269 15.5671 23.0466C15.319 23.2663 15.296 23.6455 15.5157 23.8935L15.9648 23.4957L16.414 23.098ZM21.9037 22.2213C22.1287 22.4645 22.5083 22.4793 22.7516 22.2543C22.9948 22.0293 23.0096 21.6496 22.7846 21.4064L22.3442 21.8138L21.9037 22.2213ZM20.0308 20.8047V20.2047C17.9702 20.2047 16.2916 21.8634 16.2916 23.9193H16.8916H17.4916C17.4916 22.535 18.624 21.4047 20.0308 21.4047V20.8047ZM16.8916 23.9193L16.2916 23.9193L16.2916 24.5423L16.8916 24.5423L17.4916 24.5423L17.4916 23.9193L16.8916 23.9193ZM16.8916 24.5423L17.3069 24.9754L18.3984 23.9288L17.9831 23.4957L17.5679 23.0626L16.4764 24.1092L16.8916 24.5423ZM16.8916 24.5423L17.3408 24.1445L16.414 23.098L15.9648 23.4957L15.5157 23.8935L16.4424 24.9401L16.8916 24.5423ZM22.3442 21.8138L22.7846 21.4064C22.1014 20.6679 21.1197 20.2047 20.0308 20.2047V20.8047V21.4047C20.773 21.4047 21.4392 21.7192 21.9037 22.2213L22.3442 21.8138Z" fill="#5DA9FF"/>
<path d="M23.1085 23.7949L23.5571 23.3964C23.4487 23.2744 23.2953 23.2019 23.1323 23.1954C22.9692 23.1889 22.8106 23.2492 22.6929 23.3622L23.1085 23.7949ZM21.6038 24.4081C21.3648 24.6377 21.3572 25.0175 21.5867 25.2565C21.8162 25.4955 22.1961 25.5031 22.4351 25.2736L22.0195 24.8409L21.6038 24.4081ZM23.5892 25.2394C23.8093 25.4871 24.1885 25.5095 24.4362 25.2894C24.684 25.0693 24.7064 24.6901 24.4863 24.4424L24.0377 24.8409L23.5892 25.2394ZM18.084 26.1249C17.8572 25.8833 17.4775 25.8712 17.2359 26.098C16.9943 26.3248 16.9822 26.7045 17.209 26.9461L17.6465 26.5355L18.084 26.1249ZM19.9573 27.5325V28.1325C22.0224 28.1325 23.7085 26.476 23.7085 24.4179H23.1085H22.5085C22.5085 25.8001 21.3729 26.9325 19.9573 26.9325V27.5325ZM23.1085 24.4179H23.7085V23.7949H23.1085H22.5085V24.4179H23.1085ZM23.1085 23.7949L22.6929 23.3622L21.6038 24.4081L22.0195 24.8409L22.4351 25.2736L23.5241 24.2277L23.1085 23.7949ZM23.1085 23.7949L22.66 24.1934L23.5892 25.2394L24.0377 24.8409L24.4863 24.4424L23.5571 23.3964L23.1085 23.7949ZM17.6465 26.5355L17.209 26.9461C17.894 27.676 18.8729 28.1325 19.9573 28.1325V27.5325V26.9325C19.2157 26.9325 18.55 26.6215 18.084 26.1249L17.6465 26.5355Z" fill="#5DA9FF"/>
<path d="M15.5 11.0674C12.2374 12.7142 10 16.0959 10 20.0001C10 25.5229 14.4772 30.0001 20 30.0001C25.5228 30.0001 30 25.5229 30 20.0001C30 16.0959 27.7626 12.7142 24.5 11.0674" stroke="#5DA9FF" stroke-width="1.2" stroke-linecap="round"/>
</g>
<defs>
<clipPath id="clip0_38_8294">
<rect width="40" height="40" fill="white"/>
</clipPath>
</defs>
</svg>
