<svg width="60" height="60" viewBox="0 0 60 60" fill="none" xmlns="http://www.w3.org/2000/svg">
<rect width="60" height="60" rx="12" fill="#F8FAFC"/>
<g clip-path="url(#clip0_38_8293)">
<mask id="mask0_38_8293" style="mask-type:luminance" maskUnits="userSpaceOnUse" x="10" y="10" width="40" height="40">
<path d="M10 10H50V50H10V10Z" fill="white"/>
</mask>
<g mask="url(#mask0_38_8293)">
<path d="M25.6556 11.8838V14.5603C25.6556 15.1094 25.3084 15.5942 24.7929 15.7829C24.3973 15.9277 24.0094 16.0885 23.63 16.2646C23.1316 16.4959 22.543 16.399 22.1545 16.0105L20.262 14.118C19.7551 13.6111 18.9333 13.6111 18.4264 14.118L14.118 18.4264C13.6112 18.9332 13.6112 19.755 14.118 20.2619L16.0105 22.1544C16.3991 22.5429 16.4959 23.1316 16.2646 23.6299C16.0886 24.0093 15.9277 24.3972 15.783 24.7928C15.5942 25.3084 15.1094 25.6555 14.5604 25.6555H11.8839C11.167 25.6555 10.5859 26.2366 10.5859 26.9535V33.0465C10.5859 33.7633 11.167 34.3444 11.8839 34.3444H14.5604C15.1094 34.3444 15.5942 34.6916 15.783 35.2071C15.9277 35.6027 16.0886 35.9906 16.2646 36.37C16.4959 36.8684 16.3991 37.457 16.0105 37.8455L14.118 39.738C13.6112 40.2449 13.6112 41.0667 14.118 41.5736L18.4264 45.882C18.9333 46.3889 19.7551 46.3889 20.262 45.882L22.1545 43.9895C22.543 43.6009 23.1316 43.5041 23.63 43.7354C24.0094 43.9115 24.3973 44.0723 24.7929 44.217C25.3084 44.4058 25.6556 44.8906 25.6556 45.4396V48.1161C25.6556 48.833 26.2367 49.4141 26.9535 49.4141H33.0466C33.7634 49.4141 34.3445 48.833 34.3445 48.1161V45.4396C34.3445 44.8906 34.6916 44.4058 35.2072 44.217C35.6028 44.0723 35.9907 43.9115 36.3701 43.7354C36.8684 43.5041 37.4571 43.6009 37.8456 43.9895L39.7381 45.882C40.245 46.3889 41.0668 46.3889 41.5736 45.882L45.882 41.5736C46.3889 41.0667 46.3889 40.2449 45.882 39.738L43.9895 37.8455C43.601 37.457 43.5041 36.8684 43.7354 36.37C43.9115 35.9906 44.0723 35.6027 44.2171 35.2071C44.4058 34.6916 44.8906 34.3444 45.4397 34.3444H48.1162C48.833 34.3444 49.4141 33.7633 49.4141 33.0465V26.9535C49.4141 26.2366 48.833 25.6555 48.1162 25.6555H45.4397C44.8906 25.6555 44.4058 25.3084 44.2171 24.7928C44.0723 24.3972 43.9115 24.0093 43.7354 23.6299C43.5041 23.1316 43.601 22.5429 43.9895 22.1544L45.882 20.2619C46.3889 19.755 46.3889 18.9332 45.882 18.4264L41.5736 14.118C41.0668 13.6111 40.245 13.6111 39.7381 14.118L37.8456 16.0105C37.4571 16.399 36.8684 16.4959 36.3701 16.2646C35.9907 16.0885 35.6028 15.9277 35.2072 15.7829C34.6916 15.5942 34.3445 15.1094 34.3445 14.5603V11.8838C34.3445 11.167 33.7634 10.5859 33.0466 10.5859H26.9535C26.2367 10.5859 25.6556 11.167 25.6556 11.8838Z" stroke="#5DA9FF" stroke-width="1.2" stroke-miterlimit="10" stroke-linecap="round" stroke-linejoin="round"/>
</g>
<path d="M33.2783 22.1391L26.7267 22.1391C26.3648 22.1392 26.0715 21.7893 26.0715 21.3577L26.0715 19.0134C26.0715 18.5818 26.3648 18.2319 26.7267 18.2319L33.2783 18.2319C33.6401 18.2319 33.9335 18.5818 33.9335 19.0134L33.9335 21.3577C33.9335 21.7893 33.6402 22.1391 33.2783 22.1391Z" stroke="#5DA9FF" stroke-width="1.2" stroke-miterlimit="10" stroke-linecap="round" stroke-linejoin="round"/>
<path d="M27.3822 22.1392L23.4512 27.6094L23.4512 37.176" stroke="#5DA9FF" stroke-width="1.2" stroke-miterlimit="10" stroke-linecap="round" stroke-linejoin="round"/>
<path d="M32.6422 22.1391L36.5732 27.6093L36.5732 37.1761" stroke="#5DA9FF" stroke-width="1.2" stroke-miterlimit="10" stroke-linecap="round" stroke-linejoin="round"/>
<path d="M23.4512 27.6094H36.5545" stroke="#5DA9FF" stroke-width="1.2" stroke-miterlimit="10" stroke-linejoin="round"/>
<path d="M26.8906 33.9193H26.2906V33.9193L26.8906 33.9193ZM26.8906 34.5423L26.4415 34.9401C26.5497 35.0623 26.703 35.1351 26.8662 35.1418C27.0293 35.1484 27.1881 35.0883 27.3059 34.9754L26.8906 34.5423ZM28.3974 33.9288C28.6366 33.6995 28.6446 33.3197 28.4153 33.0805C28.1859 32.8413 27.8061 32.8333 27.5669 33.0626L27.9822 33.4957L28.3974 33.9288ZM26.4131 33.098C26.1934 32.8499 25.8142 32.8269 25.5661 33.0466C25.318 33.2663 25.295 33.6455 25.5147 33.8935L25.9639 33.4957L26.4131 33.098ZM31.9027 32.2213C32.1278 32.4645 32.5074 32.4793 32.7506 32.2543C32.9939 32.0293 33.0086 31.6496 32.7836 31.4064L32.3432 31.8138L31.9027 32.2213ZM30.0299 30.8047V30.2047C27.9692 30.2047 26.2906 31.8634 26.2906 33.9193H26.8906H27.4906C27.4906 32.535 28.623 31.4047 30.0299 31.4047V30.8047ZM26.8906 33.9193L26.2906 33.9193L26.2906 34.5423L26.8906 34.5423L27.4906 34.5423L27.4906 33.9193L26.8906 33.9193ZM26.8906 34.5423L27.3059 34.9754L28.3974 33.9288L27.9822 33.4957L27.5669 33.0626L26.4754 34.1092L26.8906 34.5423ZM26.8906 34.5423L27.3398 34.1445L26.4131 33.098L25.9639 33.4957L25.5147 33.8935L26.4415 34.9401L26.8906 34.5423ZM32.3432 31.8138L32.7836 31.4064C32.1004 30.6679 31.1187 30.2047 30.0299 30.2047V30.8047V31.4047C30.772 31.4047 31.4383 31.7192 31.9027 32.2213L32.3432 31.8138Z" fill="#5DA9FF"/>
<path d="M33.1075 33.7949L33.5561 33.3964C33.4477 33.2744 33.2943 33.2019 33.1313 33.1954C32.9682 33.1889 32.8096 33.2492 32.6919 33.3622L33.1075 33.7949ZM31.6029 34.4081C31.3639 34.6377 31.3562 35.0175 31.5857 35.2565C31.8153 35.4955 32.1951 35.5031 32.4341 35.2736L32.0185 34.8409L31.6029 34.4081ZM33.5882 35.2394C33.8083 35.4871 34.1875 35.5095 34.4353 35.2894C34.683 35.0693 34.7054 34.6901 34.4853 34.4424L34.0368 34.8409L33.5882 35.2394ZM28.083 36.1249C27.8562 35.8833 27.4765 35.8712 27.2349 36.098C26.9933 36.3248 26.9812 36.7045 27.208 36.9461L27.6455 36.5355L28.083 36.1249ZM29.9563 37.5325V38.1325C32.0214 38.1325 33.7075 36.476 33.7075 34.4179H33.1075H32.5075C32.5075 35.8001 31.3719 36.9325 29.9563 36.9325V37.5325ZM33.1075 34.4179H33.7075V33.7949H33.1075H32.5075V34.4179H33.1075ZM33.1075 33.7949L32.6919 33.3622L31.6029 34.4081L32.0185 34.8409L32.4341 35.2736L33.5231 34.2277L33.1075 33.7949ZM33.1075 33.7949L32.659 34.1934L33.5882 35.2394L34.0368 34.8409L34.4853 34.4424L33.5561 33.3964L33.1075 33.7949ZM27.6455 36.5355L27.208 36.9461C27.893 37.676 28.8719 38.1325 29.9563 38.1325V37.5325V36.9325C29.2147 36.9325 28.549 36.6215 28.083 36.1249L27.6455 36.5355Z" fill="#5DA9FF"/>
<path d="M25.5 21.0674C22.2374 22.7142 20 26.0959 20 30.0001C20 35.5229 24.4772 40.0001 30 40.0001C35.5228 40.0001 40 35.5229 40 30.0001C40 26.0959 37.7626 22.7142 34.5 21.0674" stroke="#5DA9FF" stroke-width="1.2" stroke-linecap="round"/>
</g>
<defs>
<clipPath id="clip0_38_8293">
<rect width="40" height="40" fill="white" transform="translate(10 10)"/>
</clipPath>
</defs>
</svg>
