<svg width="53" height="52" viewBox="0 0 53 52" fill="none" xmlns="http://www.w3.org/2000/svg">
<path d="M45.1343 33.3184C45.9465 33.2886 46.1405 34.9137 46.2408 35.541C47.0649 40.6974 43.4298 45.761 38.106 46.4863C35.3543 46.8611 33.0184 46.1731 30.8091 44.5791C30.5184 44.3489 30.1696 44.0907 30.3912 43.6602C30.7384 42.9861 31.4289 43.8222 31.7632 44.0137C35.7529 46.9022 41.6733 45.6208 44.1158 41.4023C45.7721 38.5413 45.4482 36.6758 44.6754 33.8008C44.7901 33.5056 44.833 33.4348 45.1343 33.3184ZM29.3502 31.3076C30.6229 31.2472 29.6358 32.467 29.399 32.8447C27.7297 35.5061 27.815 39.1742 29.5767 41.7725C29.8073 42.1128 29.7047 42.4433 29.3502 42.6416C28.9737 42.7008 28.8339 42.5988 28.6422 42.2842C27.0626 39.693 26.6598 36.5343 27.8189 33.7061C28.0688 33.0963 28.7946 31.6426 29.3502 31.3076ZM41.358 33.8018C42.7932 34.0337 41.087 35.3129 40.7261 35.6719L37.6119 38.7461C36.8982 39.4449 36.2043 40.2086 35.4664 40.8818C35.0155 41.293 34.688 40.9489 34.3463 40.6143C33.5334 39.8184 32.7333 38.99 31.9 38.2109C31.6504 37.9795 31.483 37.8569 31.3814 37.5303C31.5121 37.1288 31.8763 36.8163 32.2466 37.1514C33.2042 38.0183 34.1229 38.9703 35.0425 39.877L40.3199 34.668C40.5798 34.4096 41.0243 33.902 41.358 33.8018ZM19.1988 28.2686C19.759 28.3233 19.6832 28.7457 19.6822 29.1592L19.6802 35.4834C19.6801 36.2399 19.9889 37.8112 19.1988 38.0205C18.5269 37.8881 18.6895 37.1857 18.689 36.6221L18.688 30.9521C18.6882 30.1776 18.3588 28.4274 19.1988 28.2686ZM16.2906 31.0312C16.4919 31.0259 16.6618 31.1109 16.7545 31.293C16.8618 31.5043 16.8557 34.1416 16.7623 34.3955C16.699 34.5668 16.5272 34.6423 16.3687 34.707C15.3688 34.7508 15.8679 31.3298 15.8804 31.3008C15.9628 31.139 16.124 31.0795 16.2906 31.0312ZM36.7593 27.7471C39.5563 27.6911 42.1197 28.9568 43.9947 30.9482C44.4244 31.4046 44.8995 32.0016 43.9556 32.2324C43.6254 32.1358 43.3741 31.8151 43.147 31.5645C42.1655 30.4812 41.0036 29.7427 39.6275 29.2363C37.352 28.3814 34.6775 28.693 32.5787 29.8613C32.3247 30.0028 31.5617 30.5753 31.3267 30.5977C30.8595 30.6416 30.5595 30.088 30.8931 29.7549C32.1999 28.4515 34.9757 27.7682 36.7593 27.7471ZM19.0836 5.41016C19.8339 5.41023 19.8887 6.09026 20.0865 6.6748L22.4908 13.9014L30.4019 13.9004C30.7469 13.899 31.6862 13.8335 32.0084 14.04C32.7404 14.511 30.823 15.5671 30.5279 15.7744L26.3755 18.7461C25.8922 19.0958 24.9951 19.6559 24.6246 20.0566C24.7964 20.5262 24.9421 21.0295 25.0982 21.5068L26.0406 24.3447C26.5403 25.8112 27.0169 27.2872 27.481 28.7646C27.5926 29.1211 27.1339 29.5108 26.7789 29.2861C26.5493 29.1407 26.3538 28.9927 26.1334 28.8359L21.5318 25.5732C20.8038 25.0568 20.1473 24.5564 19.3941 24.0586L19.1988 23.9277C18.4308 24.4191 17.6113 25.0538 16.8677 25.5879L12.5123 28.7256C12.2505 28.9138 11.9882 29.1116 11.7173 29.2861C11.3287 29.5397 10.9381 29.1696 11.0464 28.748C11.152 28.3265 11.3072 27.9163 11.4449 27.5039C12.2738 25.0192 13.0719 22.5213 13.9615 20.0566C13.2894 19.5862 12.5986 19.0563 11.9322 18.5693L7.57867 15.4277C5.64659 14.0127 6.42232 13.9006 8.22125 13.9004L15.9713 13.9014L18.2681 6.92871C18.4485 6.36952 18.5248 5.6491 19.0836 5.41016ZM19.1988 7.22559C18.7318 8.74879 18.1976 10.3107 17.6949 11.8242L17.106 13.5879C16.5251 15.3244 16.5906 14.8716 14.5201 14.8711H9.34039C9.10069 14.8726 8.68755 14.8889 8.45953 14.8701C8.80142 15.113 9.11586 15.3712 9.45074 15.6123L12.8463 18.0596C13.5845 18.602 15.1924 19.3158 14.9322 20.2041C14.2049 22.6855 13.177 25.1153 12.4722 27.582L16.7017 24.5293C17.2111 24.1559 18.863 22.6863 19.3941 22.8633C19.8686 23.1226 20.4418 23.5984 20.9068 23.9092C22.6198 25.0542 24.3473 26.5165 26.064 27.582C25.7399 26.6416 23.462 20.0756 23.5455 19.626C23.7584 19.3414 24.6623 18.7655 25.0064 18.5195L28.1275 16.3086C28.7931 15.8375 29.4428 15.3316 30.1158 14.8701L23.0914 14.8711C22.9415 14.871 21.99 14.8812 21.9263 14.8213C21.1775 14.1171 19.7433 7.70508 19.1988 7.22559ZM34.8746 22.6348C35.7597 22.6334 37.6675 22.262 37.9224 23.1426C37.8342 23.4753 37.7566 23.5899 37.4146 23.6768C36.6009 23.7016 35.7473 23.6694 34.9312 23.6758C34.3114 23.6806 34.1115 22.7253 34.8746 22.6348ZM38.3218 20.1357C38.7021 20.1357 39.6557 20.0042 39.8843 20.3799C40.0617 20.6717 39.8818 20.9561 39.6275 21.1211C39.4289 21.1418 39.0559 21.1236 38.8423 21.1221L31.8277 21.1211C31.2054 21.1213 30.4284 21.1524 29.8248 21.1006C29.5007 21.0727 29.1906 20.3754 29.8463 20.1367C30.4127 20.1081 31.2495 20.1356 31.8414 20.1357H38.3218ZM24.3492 7.22559C24.7955 7.1871 26.9604 9.55022 27.0582 9.84473C26.9735 10.1714 26.915 10.2718 26.5875 10.376C26.1379 10.3114 24.4344 8.47397 24.0806 8.11035C23.7032 7.72201 23.8086 7.338 24.3492 7.22559Z" fill="#5DA9FF"/>
</svg>
