<svg width="52" height="52" viewBox="0 0 52 52" fill="none" xmlns="http://www.w3.org/2000/svg">
<path d="M37.3998 19.9404C38.2713 19.8241 39.2299 20.3812 39.4379 21.2139C39.5921 21.8311 39.5253 23.0888 39.5238 23.7666C40.6385 25.2656 41.4817 27.648 41.806 29.4482C42.0155 30.6112 41.945 31.9045 41.9447 33.0869L41.9457 41.2607C41.9467 43.0961 42.2743 45.3959 39.7601 45.79C39.0417 45.9027 35.9342 45.9214 35.2465 45.7158C34.3739 45.4547 33.6775 44.6771 33.5345 43.7744C33.4753 43.4006 33.444 41.3589 33.5443 41.0615C33.6495 40.7508 34.1025 40.771 34.2152 41.0615C34.407 41.5565 34.1712 42.9129 34.2435 43.5674C34.4435 45.3757 36.4204 45.1177 37.7123 45.1211C38.4943 45.1232 39.4118 45.2308 40.1498 44.9092C41.3911 44.2789 41.1877 43.1591 41.1869 41.9844V34.2197C41.1871 32.5996 41.1984 31.0131 41.0199 29.4023C38.7514 30.8143 36.6462 30.6022 34.4017 29.4023C34.0876 31.8444 34.3384 34.323 34.2465 36.7764C34.2559 37.2353 33.4981 37.8222 33.4945 35.9873V32.3174C33.4954 29.092 33.9659 27.4806 35.2836 24.6846C35.3664 24.4275 35.7109 24.0201 35.7494 23.7793C35.9677 22.4078 35.2338 20.2893 37.3998 19.9404ZM10.4886 6.14746C11.002 6.15079 11.5503 6.12085 12.0619 6.16113C12.3162 6.1816 12.498 6.56576 12.2797 6.74707C12.0386 6.94705 11.0822 6.83314 10.722 6.83203V45.1211C11.1612 45.1279 11.6191 45.1212 12.0599 45.1211C12.5666 45.2439 12.4949 45.7906 12.0248 45.8467C11.723 45.8827 11.3806 45.8542 11.0726 45.8613C9.64431 45.8942 9.97915 45.5457 9.97888 44.1709L9.96228 6.50781C9.96213 6.17721 10.2349 6.17013 10.4886 6.14746ZM18.4086 6.56445C18.4624 5.82469 19.3984 6.05948 19.9965 6.05957L24.389 6.06055C24.9897 6.05933 26.0681 5.82264 26.0756 6.59961C26.0831 7.41235 26.0827 8.22236 26.0785 9.03418C26.076 9.53203 25.4146 9.44569 25.0902 9.43457C25.3187 10.8919 25.8684 10.9889 26.9203 11.8672C28.7631 13.4059 28.7676 15.6268 28.766 17.7822L28.767 41.6445C28.7671 42.7312 28.8401 43.5814 28.1547 44.5205C27.2145 45.8085 26.063 45.8559 24.6605 45.8564H20.2728C19.0148 45.8557 18.1828 45.9452 17.1176 45.1338C15.6654 44.0276 15.8153 42.6695 15.848 41.0439C15.8682 40.0452 15.8098 38.9248 15.847 37.9414V18.0215C15.8471 17.3284 15.8084 16.265 15.847 15.6143C16.3639 11.5618 18.9783 11.901 19.4369 9.43457C19.2012 9.44804 18.9447 9.47057 18.7123 9.43457C18.1523 9.17171 18.3657 7.15364 18.4086 6.56445ZM22.4457 9.43457H20.2142C19.7776 12.9123 16.5654 11.3673 16.5804 17.1211C16.9939 17.1252 18.3143 16.9394 17.8529 17.7422C17.7302 17.9557 16.8086 17.8747 16.5804 17.8496V20.6992C16.9343 20.7165 18.3213 20.5252 17.8256 21.3418C17.7216 21.5127 16.8204 21.4581 16.5804 21.4561V24.2002C17.0302 24.1998 18.3294 23.9884 17.8168 24.8535C17.7188 25.0187 16.7961 24.9377 16.5804 24.9395V27.6885C16.9447 27.7038 18.3407 27.4723 17.8295 28.3203C17.7258 28.4923 16.8176 28.4414 16.5804 28.4385C16.5807 29.3317 16.6002 30.2947 16.5804 31.1816C16.9449 31.2053 17.8326 31.0723 17.9115 31.4961C18.0296 32.1338 16.9413 31.9594 16.5804 31.9336C16.5813 32.7899 16.6051 33.7613 16.5804 34.6084C17.0249 34.6901 17.9682 34.5146 17.8969 35.1357C17.8467 35.5708 16.862 35.4139 16.5804 35.4053V38.1621C16.9801 38.1574 18.2991 37.9922 17.7855 38.7725C17.6588 38.9648 16.805 38.9002 16.5804 38.9004L16.5814 41.418C16.5777 43.9878 17.1301 45.2831 20.0258 45.1211C19.9755 44.8866 19.7162 43.9179 19.8607 43.7686C20.5658 43.0469 20.7387 44.7362 20.7865 45.1211H23.7816C23.8426 44.7413 23.9253 43.9239 24.2162 43.6504C24.3312 43.5425 24.6534 43.6079 24.7211 43.7646C24.8573 44.1068 24.5806 44.7748 24.4974 45.1211C24.993 45.1477 25.7564 45.1579 26.2289 45.0107C28.0729 44.4364 28.0006 42.9305 27.9965 41.4297L27.9955 38.998L26.3646 39.002C25.967 39.0024 24.46 39.0199 25.3148 38.2393C26.16 38.2125 27.14 38.2396 27.9955 38.2393C28.0146 37.3444 27.9513 36.2642 27.9955 35.4053C27.6976 35.3781 27.4072 35.38 27.1136 35.3516C26.8369 35.3243 26.6472 34.8692 26.9115 34.7012C27.1395 34.5489 27.7579 34.6101 27.9955 34.6084C27.9945 33.7251 27.9819 32.8147 27.9955 31.9336L26.3578 31.9346C26.0646 31.9345 25.7413 31.9609 25.4525 31.9131C25.1178 31.8575 25.0005 31.4227 25.2933 31.2363C25.4642 31.1276 27.6202 31.1809 27.9955 31.1816V28.4385C27.6852 28.4472 27.3224 28.4754 27.0385 28.4141C26.7244 28.3459 26.6493 27.9845 26.8685 27.7939C27.0613 27.6268 27.7698 27.6848 27.9955 27.6885C27.9987 26.8506 27.9583 25.7482 27.9955 24.9395L26.3099 24.9424C26.0269 24.9437 25.7507 24.9602 25.4691 24.9404C25.0157 24.9086 25.0208 24.2702 25.4457 24.2178C25.7243 24.1834 26.0462 24.1971 26.3285 24.1973L27.9955 24.2002V21.4561C26.4086 21.4625 26.1819 20.6124 27.9955 20.6992V17.8496L26.3226 17.8516C26.0459 17.8522 25.7487 17.868 25.475 17.8389C25.0091 17.7891 24.9967 17.1802 25.4789 17.1328C25.7664 17.1046 26.0621 17.1177 26.351 17.1182L27.9955 17.1211C28.01 14.4681 27.6066 13.3404 25.4857 11.7314C24.8368 11.2391 24.3837 10.2515 24.3392 9.43457C23.7124 9.4258 23.0737 9.43291 22.4457 9.43457ZM33.7992 38.0352C34.3979 38.0551 34.2288 38.5786 34.2582 39.0264C34.284 39.4199 34.3466 39.8954 33.9506 40.0479C33.2977 40.0103 33.2936 38.2777 33.7992 38.0352ZM36.4301 24.2002C35.5664 25.844 35.1203 26.7975 34.6156 28.6309C36.0057 29.5552 37.3212 29.7773 38.9564 29.4814C39.8346 29.2196 40.1089 29.0021 40.8549 28.6309C40.3418 26.7342 39.7081 25.8293 38.9564 24.2002H36.4301ZM38.7543 23.4482C38.7568 22.6 39.0258 20.3974 37.5941 20.6992C36.2578 20.8045 36.5658 22.4416 36.5658 23.4482H38.7543ZM19.1722 8.66113C21.2044 8.6607 23.2861 8.63952 25.3148 8.66113V6.83203H19.1722V8.66113Z" fill="#5DA9FF"/>
</svg>
