<svg width="52" height="52" viewBox="0 0 52 52" fill="none" xmlns="http://www.w3.org/2000/svg">
<path d="M44.6757 6.71973C45.0799 6.30266 45.7131 6.89171 45.2782 7.31348C44.6821 7.89166 44.0975 8.48032 43.5087 9.06641C44.5552 10.1633 44.4314 11.2354 44.4315 12.6318L44.4296 23.7666C44.4258 25.0684 43.2958 25.6827 42.493 26.5391L24.2567 44.8096C22.8828 46.1976 21.6269 45.1778 20.6239 44.168L17.9755 41.502C17.8892 41.416 17.57 41.1169 17.5155 41.0293C17.5107 41.0093 17.5021 40.9885 17.4911 40.9668C17.5021 40.9886 17.5107 41.0093 17.5155 41.0293C17.2852 40.8356 16.9267 40.4483 16.6991 40.2188L9.11023 32.6504C8.59904 32.15 7.11837 30.7621 6.78992 30.2031C5.92219 28.7263 7.81179 27.3932 8.74011 26.4658L26.66 8.70801C27.9027 7.46558 28.0389 7.54026 29.7509 7.54395H30.7128C31.7231 7.52461 32.9204 7.52707 33.8231 7.5332C34.402 7.53714 34.8597 7.54238 35.0692 7.54297C35.0902 7.54303 35.118 7.54333 35.1512 7.54395L36.3749 7.54492L39.4813 7.54395C40.797 7.54295 41.8895 7.47461 42.8954 8.47266L42.911 8.48828C43.4664 7.88046 44.1013 7.31227 44.6757 6.71973ZM29.7743 8.29297C29.3492 8.29328 28.9809 8.29931 28.9012 8.31348C28.8934 8.30907 28.8862 8.30398 28.8788 8.2998C28.2685 8.37132 27.834 8.66456 26.8915 9.60449L9.19421 27.1973C8.66107 27.7356 8.1007 28.242 7.5946 28.8115C6.91805 29.5734 7.85145 30.2467 8.35144 30.75L16.6219 39.0176C16.887 39.2854 17.2319 39.613 17.5262 39.917L17.7987 40.21C18.6164 40.7782 20.2272 42.6303 21.0067 43.3916C21.3598 43.7216 21.6809 44.1233 22.0673 44.4121C23.1954 45.2554 24.4351 43.4409 25.1561 42.7266L43.2479 24.6611C43.6766 24.2354 43.5944 23.8532 43.5946 23.29L43.5956 13.2314C43.5961 11.7782 43.8484 10.815 42.911 9.63672C42.048 10.3181 41.2579 11.356 40.3798 12.0742C41.3304 13.6553 40.7856 15.5329 38.9364 16.0684C36.6797 16.7216 34.8036 14.2672 35.9608 12.2559C36.8883 10.6441 38.4638 10.6406 39.8954 11.4609C40.4656 10.7082 41.5925 9.78428 42.2948 9.06641C41.5258 8.25031 40.6428 8.34109 39.6053 8.3418L31.2997 8.34277V8.34375C30.6557 8.34282 30.1683 8.31195 29.7743 8.29297ZM35.2469 36.6416C35.6221 36.6835 35.9247 37.0258 35.6093 37.3398L30.9969 41.9492C30.9245 42.0227 30.8306 42.0751 30.7391 42.1211C30.4326 42.1245 30.1614 41.8688 30.2938 41.5469C30.362 41.3899 34.8719 36.7974 35.2469 36.6416ZM16.6815 40.0898V40.0908V40.0898ZM37.204 34.6816C38.2553 34.7282 37.4186 35.649 36.993 35.9268C36.0713 36.0324 36.5911 34.9967 37.204 34.6816ZM26.1102 17.8037C28.6713 17.4763 30.862 19.8082 30.5848 22.3652C30.3686 24.361 28.4061 26.2904 26.8622 27.5264L26.2831 26.9395C27.738 25.3971 29.8069 24.1601 29.7723 21.8477C29.7325 19.1879 26.8148 17.8174 24.6405 19.1553C24.1481 19.4584 23.7866 19.8329 23.3749 20.2256L22.0673 21.4717C21.4958 22.0075 20.6567 22.722 20.1473 23.2686C21.2189 24.2276 22.2583 25.43 23.3104 26.4492C23.5673 26.698 23.9873 27.0947 24.1669 27.3916C23.8362 27.837 23.1319 28.426 22.7284 28.8838C22.9323 29.1279 23.2105 29.3791 23.4432 29.6016C24.0044 29.2005 24.4865 28.5344 25.0077 28.1963C25.9291 29.1813 27.6153 31.0577 28.6512 31.8359C28.8 31.7321 28.8385 31.6998 28.9696 31.5732L29.9022 30.5986C29.2608 30.0011 28.2014 29.0213 27.6737 28.3682C27.8876 28.0328 29.0495 26.9212 29.4052 26.5684L30.6757 25.3184C31.0101 24.9904 31.4518 24.4926 31.8739 24.3096C32.8661 24.7072 31.6446 25.5697 31.2333 25.96L29.9589 27.1924C29.5856 27.5487 29.1093 27.9795 28.786 28.3682C29.0899 28.6298 30.9272 30.3594 30.9442 30.6104C30.9632 30.9075 29.9878 31.7353 29.7841 31.9395C28.3974 33.3294 28.7321 33.1582 27.4598 31.874L25.0077 29.3633C24.77 29.5615 23.7104 30.6523 23.5438 30.6621C23.1378 30.6823 21.673 29.0167 21.6923 28.8076C21.7146 28.587 22.8146 27.5908 23.0145 27.3916C22.7732 27.0751 22.1621 26.4898 21.8553 26.1807L19.9501 24.2412C19.0395 23.313 18.7177 23.4201 19.6454 22.5693L22.7391 19.6582C23.847 18.6254 24.5241 17.979 26.1102 17.8037ZM25.6327 20.415C27.5446 20.2347 29.1274 22.5564 27.8319 24.2109C27.5734 24.5408 25.929 26.1657 25.6327 26.3301C25.5591 26.2446 25.4846 26.1837 25.4003 26.1104C24.9319 25.5252 22.5028 23.3279 22.3798 22.9336C22.5133 22.6302 23.0759 22.1967 23.326 21.9326C24.1177 21.0965 24.4322 20.5597 25.6327 20.415ZM25.6327 21.2695C24.802 21.4235 23.9042 22.3828 23.4276 23.0312C23.7294 23.2265 24.0893 23.6122 24.3563 23.877L25.5292 25.0322C25.5893 25.083 25.6492 25.1342 25.7118 25.1816C26.2792 24.5754 27.4935 23.7114 27.4608 22.8574C27.4573 21.9157 26.5556 21.1442 25.6327 21.2695ZM11.245 19.7314C11.9708 19.67 12.1715 20.3111 11.6122 20.6289C10.9862 20.7759 10.714 20.0567 11.245 19.7314ZM17.1425 13.915C17.6717 13.8851 17.8881 14.2604 17.4491 14.7012C16.8824 15.27 13.7201 18.5386 13.329 18.7266C13.0612 18.7746 12.7772 18.5279 12.8104 18.2471C12.8383 18.0252 14.5963 16.4108 14.8485 16.1592L16.0966 14.8906C16.3396 14.6427 16.866 14.0708 17.1425 13.915ZM38.1005 11.7637C34.6133 12.3421 37.428 17.1361 39.579 14.7119C40.0551 14.0944 40.0552 13.4487 39.7762 12.7422C39.598 12.9252 38.92 13.6838 38.6688 13.6309C37.5887 13.4031 38.912 12.3797 39.2518 12.0742C38.8941 11.8167 38.5393 11.7246 38.1005 11.7637ZM19.1981 11.9082C20.2072 11.8648 19.5327 12.7527 19.1053 13.0859C18.1097 13.048 18.6533 12.288 19.1981 11.9082Z" fill="#5DA9FF"/>
</svg>
