<svg width="60" height="60" viewBox="0 0 60 60" fill="none" xmlns="http://www.w3.org/2000/svg">
<rect width="60" height="60" rx="12" fill="#F8FAFC"/>
<g clip-path="url(#clip0_38_7772)">
<mask id="mask0_38_7772" style="mask-type:luminance" maskUnits="userSpaceOnUse" x="10" y="10" width="40" height="40">
<path d="M10 10H50V50H10V10Z" fill="white"/>
</mask>
<g mask="url(#mask0_38_7772)">
<path d="M34.1694 20.7362C37.6991 22.3276 40.1561 25.8768 40.1561 30.0003C40.1561 34.8564 36.7485 38.9161 32.1938 39.9189" stroke="#5DA9FF" stroke-width="1.17187" stroke-miterlimit="10" stroke-linecap="round" stroke-linejoin="round"/>
<path d="M25.8297 39.2637C22.3 37.6723 19.8438 34.123 19.8438 30.0004C19.8438 25.1254 23.278 21.0529 27.8593 20.0702" stroke="#5DA9FF" stroke-width="1.17187" stroke-miterlimit="10" stroke-linecap="round" stroke-linejoin="round"/>
<path d="M33.0746 18.6308C34.0212 18.6231 34.6524 19.4916 34.3354 20.3104C33.4927 22.486 32.5599 24.6343 31.6504 26.7831C31.5953 26.9132 31.6348 26.9674 31.7426 27.0296C33.4456 28.0128 35.1449 29.0026 36.8496 29.9829C37.6894 30.4658 37.8231 31.4485 37.1224 32.1134C34.0347 35.0423 30.9422 37.9662 27.8508 40.8913C27.3323 41.3819 26.8217 41.4932 26.2901 41.2358C25.7111 40.9555 25.427 40.2966 25.6633 39.6858C25.9858 38.8523 26.3393 38.0306 26.6825 37.2052C27.2361 35.8737 27.7901 34.5422 28.3511 33.2138C28.4084 33.0782 28.3604 33.03 28.256 32.9699C26.5317 31.9784 24.7904 31.0067 23.0876 29.9788C22.295 29.5002 22.2013 28.5245 22.877 27.8842C25.9666 24.957 29.0651 22.039 32.1486 19.1052C32.433 18.8347 32.7451 18.6415 33.0746 18.6308Z" stroke="#5DA9FF" stroke-width="1.17187" stroke-miterlimit="10" stroke-linecap="round" stroke-linejoin="round"/>
<path d="M25.6556 11.8838V14.5603C25.6556 15.1094 25.3084 15.5942 24.7929 15.7829C24.3973 15.9277 24.0094 16.0885 23.63 16.2646C23.1316 16.4959 22.543 16.399 22.1545 16.0105L20.262 14.118C19.7551 13.6111 18.9333 13.6111 18.4264 14.118L14.118 18.4264C13.6112 18.9332 13.6112 19.755 14.118 20.2619L16.0105 22.1544C16.3991 22.5429 16.4959 23.1316 16.2646 23.6299C16.0886 24.0093 15.9277 24.3972 15.783 24.7928C15.5942 25.3084 15.1094 25.6555 14.5604 25.6555H11.8839C11.167 25.6555 10.5859 26.2366 10.5859 26.9535V33.0465C10.5859 33.7633 11.167 34.3444 11.8839 34.3444H14.5604C15.1094 34.3444 15.5942 34.6916 15.783 35.2071C15.9277 35.6027 16.0886 35.9906 16.2646 36.37C16.4959 36.8684 16.3991 37.457 16.0105 37.8455L14.118 39.738C13.6112 40.2449 13.6112 41.0667 14.118 41.5736L18.4264 45.882C18.9333 46.3889 19.7551 46.3889 20.262 45.882L22.1545 43.9895C22.543 43.6009 23.1316 43.5041 23.63 43.7354C24.0094 43.9115 24.3973 44.0723 24.7929 44.217C25.3084 44.4058 25.6556 44.8906 25.6556 45.4396V48.1161C25.6556 48.833 26.2367 49.4141 26.9535 49.4141H33.0466C33.7634 49.4141 34.3445 48.833 34.3445 48.1161V45.4396C34.3445 44.8906 34.6916 44.4058 35.2072 44.217C35.6028 44.0723 35.9907 43.9115 36.3701 43.7354C36.8684 43.5041 37.4571 43.6009 37.8456 43.9895L39.7381 45.882C40.245 46.3889 41.0668 46.3889 41.5736 45.882L45.882 41.5736C46.3889 41.0667 46.3889 40.2449 45.882 39.738L43.9895 37.8455C43.601 37.457 43.5041 36.8684 43.7354 36.37C43.9115 35.9906 44.0723 35.6027 44.2171 35.2071C44.4058 34.6916 44.8906 34.3444 45.4397 34.3444H48.1162C48.833 34.3444 49.4141 33.7633 49.4141 33.0465V26.9535C49.4141 26.2366 48.833 25.6555 48.1162 25.6555H45.4397C44.8906 25.6555 44.4058 25.3084 44.2171 24.7928C44.0723 24.3972 43.9115 24.0093 43.7354 23.6299C43.5041 23.1316 43.601 22.5429 43.9895 22.1544L45.882 20.2619C46.3889 19.755 46.3889 18.9332 45.882 18.4264L41.5736 14.118C41.0668 13.6111 40.245 13.6111 39.7381 14.118L37.8456 16.0105C37.4571 16.399 36.8684 16.4959 36.3701 16.2646C35.9907 16.0885 35.6028 15.9277 35.2072 15.7829C34.6916 15.5942 34.3445 15.1094 34.3445 14.5603V11.8838C34.3445 11.167 33.7634 10.5859 33.0466 10.5859H26.9535C26.2367 10.5859 25.6556 11.167 25.6556 11.8838Z" stroke="#5DA9FF" stroke-width="1.2" stroke-miterlimit="10" stroke-linecap="round" stroke-linejoin="round"/>
</g>
</g>
<defs>
<clipPath id="clip0_38_7772">
<rect width="40" height="40" fill="white" transform="translate(10 10)"/>
</clipPath>
</defs>
</svg>
