<svg width="40" height="40" viewBox="0 0 40 40" fill="none" xmlns="http://www.w3.org/2000/svg">
<mask id="mask0_38_8325" style="mask-type:luminance" maskUnits="userSpaceOnUse" x="0" y="0" width="40" height="40">
<path d="M0 3.8147e-06H40V40H0V3.8147e-06Z" fill="white"/>
</mask>
<g mask="url(#mask0_38_8325)">
<path d="M9.0625 15.3906C8.63125 15.3906 8.28125 15.7406 8.28125 16.1719C8.28125 16.6031 8.63125 16.9531 9.0625 16.9531C9.49375 16.9531 9.84375 16.6031 9.84375 16.1719C9.84375 15.7406 9.49375 15.3906 9.0625 15.3906Z" fill="#5DA9FF"/>
<path d="M5.9375 5.49063V21.4813C5.9375 26.7055 8.54844 31.5844 12.8953 34.482L20 39.2188L27.1047 34.482C31.4516 31.5844 34.0625 26.7055 34.0625 21.4813V5.49063L20 0.781254L5.9375 5.49063Z" stroke="#5DA9FF" stroke-width="1.2" stroke-linecap="round" stroke-linejoin="round"/>
<path d="M9.0625 13.0465V7.74258L20 4.07539L30.9375 7.74258V21.4816C30.9375 25.6699 28.857 29.5582 25.3711 31.8816L20 35.4629L14.6289 31.8816C11.143 29.5582 9.0625 25.6699 9.0625 21.4816V19.2965" stroke="#5DA9FF" stroke-width="1.2" stroke-linecap="round" stroke-linejoin="round"/>
<path d="M18.4373 25.5469C18.0373 25.5469 17.6381 25.3945 17.3326 25.0891L14.2076 21.9641C13.5975 21.3539 13.5975 20.3648 14.2076 19.7547C14.8178 19.1445 15.8068 19.1445 16.417 19.7547L18.4373 21.775L23.5826 16.6297C24.1928 16.0195 25.1818 16.0195 25.792 16.6297C26.4021 17.2398 26.4021 18.2289 25.792 18.8391L19.542 25.0891C19.2365 25.3945 18.8373 25.5469 18.4373 25.5469Z" stroke="#5DA9FF" stroke-width="1.2" stroke-linecap="round" stroke-linejoin="round"/>
</g>
</svg>
