<svg width="32" height="25" viewBox="0 0 32 25" fill="none" xmlns="http://www.w3.org/2000/svg">
<path d="M0 25V18.0255C0 15.9299 0.383333 13.7688 1.15 11.5422C1.95 9.28291 3.03333 7.15455 4.4 5.15717C5.76667 3.12705 7.28333 1.40799 8.95 0L15.3 3.73281C14.0333 5.76293 12.9667 7.90766 12.1 10.167C11.2333 12.4263 10.8 15.0295 10.8 17.9764V25H0ZM16.7 25V18.0255C16.7 15.9299 17.0833 13.7688 17.85 11.5422C18.65 9.28291 19.7333 7.15455 21.1 5.15717C22.4667 3.12705 23.9833 1.40799 25.65 0L32 3.73281C30.7333 5.76293 29.6667 7.90766 28.8 10.167C27.9333 12.4263 27.5 15.0295 27.5 17.9764V25H16.7Z" fill="#D8EAFF"/>
</svg>
