<svg width="48" height="38" viewBox="0 0 48 38" fill="none" xmlns="http://www.w3.org/2000/svg">
<path d="M0 38V27.3988C0 24.2135 0.575 20.9286 1.725 17.5442C2.925 14.11 4.55 10.8749 6.6 7.8389C8.65 4.75311 10.925 2.14014 13.425 0L22.95 5.67387C21.05 8.75966 19.45 12.0196 18.15 15.4538C16.85 18.888 16.2 22.8448 16.2 27.3242V38H0ZM25.05 38V27.3988C25.05 24.2135 25.625 20.9286 26.775 17.5442C27.975 14.11 29.6 10.8749 31.65 7.8389C33.7 4.75311 35.975 2.14014 38.475 0L48 5.67387C46.1 8.75966 44.5 12.0196 43.2 15.4538C41.9 18.888 41.25 22.8448 41.25 27.3242V38H25.05Z" fill="#EAF4FF"/>
</svg>
