<svg width="40" height="40" viewBox="0 0 40 40" fill="none" xmlns="http://www.w3.org/2000/svg">
<path d="M34.2234 25.3505V7.49938C34.2234 7.24009 34.0133 7.02985 33.7539 7.02985H24.6077C24.3484 7.02985 24.1382 7.24001 24.1382 7.49938V16.1761H17.3636L15.3307 14.1412C14.8312 13.6416 14.8312 12.8288 15.3307 12.3292L17.5409 10.1191C18.6406 9.01938 19.2865 7.53165 19.3562 5.97806H19.4832C20.0279 5.97806 20.471 5.53392 20.471 4.98813V4.38625C20.471 3.84156 20.0279 3.39844 19.4832 3.39844H6.76945C6.22359 3.39844 5.77945 3.84156 5.77945 4.38625V4.98813C5.77945 5.53392 6.22359 5.97806 6.76945 5.97806H6.89641C6.96601 7.53095 7.61102 9.01853 8.70969 10.1192L10.9219 12.3292C11.4214 12.8288 11.4214 13.6417 10.9219 14.1412L8.70953 16.3535C7.61094 17.4521 6.96578 18.9398 6.89633 20.4945H6.76937C6.22352 20.4945 5.77938 20.9386 5.77938 21.4845L5.7793 22.0701C5.7793 22.6158 6.22344 23.06 6.7693 23.06H14.992L14.992 25.3223H6.33977C3.27484 25.3223 0.78125 27.8149 0.78125 30.8786C0.78125 33.9424 3.27484 36.4372 6.33977 36.4372H33.6631C36.7269 36.4372 39.2195 33.9436 39.2195 30.8786C39.2195 28.004 37.025 25.6324 34.2234 25.3505ZM28.2662 7.96892H30.0954V9.79813H28.2662V7.96892ZM25.0773 7.96892H27.3273V10.2677C27.3273 10.527 27.5374 10.7372 27.7968 10.7372H30.565C30.8243 10.7372 31.0345 10.527 31.0345 10.2677V7.96892H33.2845V16.1761H25.0773L25.0773 7.96892ZM30.0954 17.1151V18.9442H28.2662V17.1151H30.0954ZM25.0773 17.1151H27.3273V19.4138C27.3273 19.6731 27.5374 19.8833 27.7968 19.8833H30.565C30.8243 19.8833 31.0345 19.6731 31.0345 19.4138V17.1151H33.2845V25.3223H25.0773L25.0773 17.1151ZM19.1201 17.1151H20.9493V18.9442H19.1201V17.1151ZM18.181 17.1151V19.4138C18.181 19.6731 18.3912 19.8833 18.6505 19.8833H21.4188C21.6781 19.8833 21.8884 19.6731 21.8884 19.4138V17.1151H24.1383V25.3223H15.9312V17.1151H18.181ZM6.76945 5.03899C6.74273 5.03899 6.71852 5.0147 6.71852 4.98813V4.38625C6.71852 4.36023 6.74234 4.3375 6.76945 4.3375H19.4832C19.5097 4.3375 19.532 4.35977 19.532 4.38625V4.98813C19.532 5.01524 19.5092 5.03899 19.4832 5.03899H6.76945ZM9.37352 17.0174L11.5859 14.8051C12.4516 13.9395 12.4516 12.5309 11.5857 11.6652L9.37383 9.45548C8.45086 8.53071 7.90461 7.28321 7.83594 5.97806H18.4166C18.3479 7.2836 17.801 8.53095 16.8769 9.45517L14.6667 11.6653C13.801 12.5309 13.801 13.9395 14.6665 14.805L16.0362 16.1762H15.4616C15.2023 16.1762 14.992 16.3863 14.992 16.6457V20.4946H7.83594C7.90445 19.188 8.45055 17.9405 9.37352 17.0174ZM6.76937 22.1209C6.74312 22.1209 6.71844 22.0962 6.71844 22.0701L6.71852 21.4845C6.71852 21.4582 6.7432 21.4335 6.76945 21.4335H14.9921L14.992 22.121L6.76937 22.1209ZM33.6631 35.4982H6.33977C3.79258 35.4982 1.72023 33.426 1.72023 30.8786C1.72023 28.3313 3.7925 26.2613 6.33977 26.2613H33.6631C36.2091 26.2613 38.2805 28.3326 38.2805 30.8786C38.2805 33.4246 36.2091 35.4982 33.6631 35.4982ZM33.6631 26.888H6.33977C4.13812 26.888 2.34695 28.6782 2.34695 30.8786C2.34695 33.079 4.1382 34.8715 6.33977 34.8715H33.6631C35.8635 34.8715 37.6537 33.0802 37.6537 30.8786C37.6537 28.677 35.8635 26.888 33.6631 26.888ZM6.33977 33.9325C4.65586 33.9325 3.28594 32.5626 3.28594 30.8786C3.28594 29.1946 4.65586 27.827 6.33977 27.827C8.02367 27.827 9.39367 29.1959 9.39367 30.8786C9.39367 32.5613 8.02375 33.9325 6.33977 33.9325ZM8.90828 33.9325C9.77844 33.1995 10.3327 32.1027 10.3327 30.8786C10.3327 29.6545 9.77867 28.5596 8.90883 27.827H12.8791C12.0094 28.5595 11.4553 29.6554 11.4553 30.8786C11.4553 32.1018 12.0095 33.1995 12.8797 33.9325H8.90828ZM15.4484 33.9325C13.7644 33.9325 12.3945 32.5626 12.3945 30.8786C12.3945 29.1946 13.7644 27.827 15.4484 27.827C17.1323 27.827 18.5 29.1959 18.5 30.8786C18.5 32.5613 17.1311 33.9325 15.4484 33.9325ZM18.0154 33.9325C18.8851 33.1995 19.439 32.1027 19.439 30.8786C19.439 29.6545 18.8853 28.5596 18.016 27.827H21.9855C21.1158 28.5595 20.5617 29.6554 20.5617 30.8786C20.5617 32.1018 21.1159 33.1995 21.9861 33.9325H18.0154ZM24.5547 33.9325C22.8707 33.9325 21.5008 32.5626 21.5008 30.8786C21.5008 29.1946 22.8707 27.827 24.5547 27.827C26.2387 27.827 27.6085 29.1959 27.6085 30.8786C27.6085 32.5613 26.2386 33.9325 24.5547 33.9325ZM27.1231 33.9325C27.9933 33.1995 28.5475 32.1027 28.5475 30.8786C28.5475 29.6545 27.9935 28.5596 27.1237 27.827H31.094C30.2242 28.5595 29.6702 29.6554 29.6702 30.8786C29.6702 32.1018 30.2244 33.1995 31.0945 33.9325H27.1231ZM33.6632 33.9325C31.9792 33.9325 30.6093 32.5626 30.6093 30.8786C30.6093 29.1946 31.9792 27.827 33.6632 27.827C35.3472 27.827 36.7148 29.1959 36.7148 30.8786C36.7148 32.5613 35.3459 33.9325 33.6632 33.9325ZM6.33977 28.9054C5.25055 28.9054 4.36437 29.7906 4.36437 30.8786C4.36437 31.9667 5.25055 32.854 6.33977 32.854C7.42898 32.854 8.31523 31.9678 8.31523 30.8786C8.31523 29.7894 7.42898 28.9054 6.33977 28.9054ZM6.33977 31.9149C5.76836 31.9149 5.30336 31.45 5.30336 30.8785C5.30336 30.307 5.76828 29.8444 6.33977 29.8444C6.91125 29.8444 7.37625 30.3083 7.37625 30.8785C7.37625 31.4488 6.91133 31.9149 6.33977 31.9149ZM15.4484 28.9054C14.3591 28.9054 13.4729 29.7906 13.4729 30.8786C13.4729 31.9667 14.3591 32.854 15.4484 32.854C16.5376 32.854 17.4216 31.9678 17.4216 30.8786C17.4216 29.7894 16.5364 28.9054 15.4484 28.9054ZM15.4484 31.9149C14.8769 31.9149 14.4119 31.45 14.4119 30.8785C14.4119 30.307 14.8768 29.8444 15.4484 29.8444C16.0199 29.8444 16.4825 30.3083 16.4825 30.8785C16.4825 31.4488 16.0186 31.9149 15.4484 31.9149ZM24.5547 28.9054C23.4655 28.9054 22.5792 29.7906 22.5792 30.8786C22.5792 31.9667 23.4655 32.854 24.5547 32.854C25.6439 32.854 26.5301 31.9678 26.5301 30.8786C26.5301 29.7894 25.6439 28.9054 24.5547 28.9054ZM24.5547 31.9149C23.9832 31.9149 23.5182 31.45 23.5182 30.8785C23.5182 30.307 23.9831 29.8444 24.5547 29.8444C25.1262 29.8444 25.5911 30.3083 25.5911 30.8785C25.5911 31.4488 25.1262 31.9149 24.5547 31.9149ZM33.6632 28.9054C32.574 28.9054 31.6878 29.7906 31.6878 30.8786C31.6878 31.9667 32.574 32.854 33.6632 32.854C34.7524 32.854 35.6364 31.9678 35.6364 30.8786C35.6364 29.7894 34.7513 28.9054 33.6632 28.9054ZM33.6632 31.9149C33.0918 31.9149 32.6268 31.45 32.6268 30.8785C32.6268 30.307 33.0917 29.8444 33.6632 29.8444C34.2347 29.8444 34.6973 30.3083 34.6973 30.8785C34.6973 31.4488 34.2334 31.9149 33.6632 31.9149Z" fill="#5DA9FF" stroke="#5DA9FF" stroke-width="0.2"/>
</svg>
