<svg width="60" height="60" viewBox="0 0 60 60" fill="none" xmlns="http://www.w3.org/2000/svg">
<rect width="60" height="60" rx="12" fill="#F8FAFC"/>
<path d="M30 29.9766C31.1925 29.9766 32.1593 29.0097 32.1593 27.8169C32.1593 26.6242 31.1925 25.6572 30 25.6572C28.8075 25.6572 27.8408 26.6242 27.8408 27.8169C27.8408 29.0097 28.8075 29.9766 30 29.9766Z" stroke="#5DA9FF" stroke-width="1.2" stroke-miterlimit="10" stroke-linecap="round" stroke-linejoin="round"/>
<path d="M25.2676 41.9199V43.4487C25.2676 44.5988 26.2075 45.531 27.367 45.531H32.6331C33.7926 45.531 34.7325 44.5987 34.7325 43.4487V41.9199" stroke="#5DA9FF" stroke-width="1.2" stroke-miterlimit="10" stroke-linecap="round" stroke-linejoin="round"/>
<path d="M43.0248 27.5942C43.0248 20.4974 37.2559 14.737 30.1157 14.6753C22.9548 14.6133 16.9998 20.4448 16.9747 27.5478C16.9576 32.3662 19.6 36.574 23.5288 38.809C24.2767 39.2345 24.7391 40.0233 24.7391 40.8784V41.375H35.2605V40.879C35.2605 40.0316 35.7093 39.2404 36.4511 38.8201C40.378 36.5951 43.0248 32.4013 43.0248 27.5942Z" stroke="#5DA9FF" stroke-width="1.2" stroke-miterlimit="10" stroke-linecap="round" stroke-linejoin="round"/>
<path d="M30 10.8594V11.4527" stroke="#5DA9FF" stroke-width="1.2" stroke-miterlimit="10" stroke-linecap="round" stroke-linejoin="round"/>
<path d="M16.689 16.2324L17.1109 16.6484" stroke="#5DA9FF" stroke-width="1.2" stroke-miterlimit="10" stroke-linecap="round" stroke-linejoin="round"/>
<path d="M43.3111 16.2324L42.8892 16.6484" stroke="#5DA9FF" stroke-width="1.2" stroke-miterlimit="10" stroke-linecap="round" stroke-linejoin="round"/>
<path d="M47.1034 27.8164H46.5015" stroke="#5DA9FF" stroke-width="1.2" stroke-miterlimit="10" stroke-linecap="round" stroke-linejoin="round"/>
<path d="M13.4984 27.8164H12.8965" stroke="#5DA9FF" stroke-width="1.2" stroke-miterlimit="10" stroke-linecap="round" stroke-linejoin="round"/>
<path d="M30 22.1035C25.4578 22.1035 22.1235 27.8166 22.1235 27.8166C22.1235 27.8166 25.4578 33.5297 30 33.5297C34.5423 33.5297 37.8765 27.8166 37.8765 27.8166C37.8765 27.8166 34.5423 22.1035 30 22.1035Z" stroke="#5DA9FF" stroke-width="1.2" stroke-miterlimit="10" stroke-linecap="round" stroke-linejoin="round"/>
<path d="M32.9584 46.0752V46.2259C32.9584 47.8354 31.6538 49.1403 30.0446 49.1403C28.4354 49.1403 27.1309 47.8355 27.1309 46.2259V46.0752" stroke="#5DA9FF" stroke-width="1.2" stroke-miterlimit="10" stroke-linecap="round" stroke-linejoin="round"/>
</svg>
