<svg width="40" height="40" viewBox="0 0 40 40" fill="none" xmlns="http://www.w3.org/2000/svg">
<path d="M20.001 19.9766C21.1935 19.9766 22.1602 19.0097 22.1602 17.8169C22.1602 16.6242 21.1935 15.6572 20.001 15.6572C18.8085 15.6572 17.8418 16.6242 17.8418 17.8169C17.8418 19.0097 18.8085 19.9766 20.001 19.9766Z" stroke="#5DA9FF" stroke-width="1.2" stroke-miterlimit="10" stroke-linecap="round" stroke-linejoin="round"/>
<path d="M15.2676 31.9199V33.4487C15.2676 34.5988 16.2075 35.531 17.367 35.531H22.6331C23.7926 35.531 24.7325 34.5987 24.7325 33.4487V31.9199" stroke="#5DA9FF" stroke-width="1.2" stroke-miterlimit="10" stroke-linecap="round" stroke-linejoin="round"/>
<path d="M33.0248 17.5942C33.0248 10.4974 27.2559 4.73701 20.1157 4.67529C12.9548 4.61334 6.99985 10.4448 6.97469 17.5478C6.95758 22.3662 9.60001 26.574 13.5288 28.809C14.2767 29.2345 14.7391 30.0233 14.7391 30.8784V31.375H25.2605V30.879C25.2605 30.0316 25.7093 29.2404 26.4511 28.8201C30.378 26.5951 33.0248 22.4013 33.0248 17.5942Z" stroke="#5DA9FF" stroke-width="1.2" stroke-miterlimit="10" stroke-linecap="round" stroke-linejoin="round"/>
<path d="M20 0.859375V1.45273" stroke="#5DA9FF" stroke-width="1.2" stroke-miterlimit="10" stroke-linecap="round" stroke-linejoin="round"/>
<path d="M6.68945 6.23242L7.11141 6.64836" stroke="#5DA9FF" stroke-width="1.2" stroke-miterlimit="10" stroke-linecap="round" stroke-linejoin="round"/>
<path d="M33.3106 6.23242L32.8887 6.64836" stroke="#5DA9FF" stroke-width="1.2" stroke-miterlimit="10" stroke-linecap="round" stroke-linejoin="round"/>
<path d="M37.1039 17.8164H36.502" stroke="#5DA9FF" stroke-width="1.2" stroke-miterlimit="10" stroke-linecap="round" stroke-linejoin="round"/>
<path d="M3.49844 17.8164H2.89648" stroke="#5DA9FF" stroke-width="1.2" stroke-miterlimit="10" stroke-linecap="round" stroke-linejoin="round"/>
<path d="M19.9995 12.1035C15.4573 12.1035 12.123 17.8166 12.123 17.8166C12.123 17.8166 15.4573 23.5297 19.9995 23.5297C24.5418 23.5297 27.876 17.8166 27.876 17.8166C27.876 17.8166 24.5418 12.1035 19.9995 12.1035Z" stroke="#5DA9FF" stroke-width="1.2" stroke-miterlimit="10" stroke-linecap="round" stroke-linejoin="round"/>
<path d="M22.9584 36.0752V36.2259C22.9584 37.8354 21.6538 39.1403 20.0446 39.1403C18.4354 39.1403 17.1309 37.8355 17.1309 36.2259V36.0752" stroke="#5DA9FF" stroke-width="1.2" stroke-miterlimit="10" stroke-linecap="round" stroke-linejoin="round"/>
</svg>
