<svg width="40" height="40" viewBox="0 0 40 40" fill="none" xmlns="http://www.w3.org/2000/svg">
<g clip-path="url(#clip0_38_7773)">
<mask id="mask0_38_7773" style="mask-type:luminance" maskUnits="userSpaceOnUse" x="0" y="0" width="40" height="40">
<path d="M0 3.8147e-06H40V40H0V3.8147e-06Z" fill="white"/>
</mask>
<g mask="url(#mask0_38_7773)">
<path d="M24.1709 10.7362C27.7005 12.3276 30.1576 15.8768 30.1576 20.0003C30.1576 24.8564 26.7499 28.9161 22.1953 29.9189" stroke="#5DA9FF" stroke-width="1.17187" stroke-miterlimit="10" stroke-linecap="round" stroke-linejoin="round"/>
<path d="M15.8297 29.2637C12.3 27.6723 9.84375 24.123 9.84375 20.0004C9.84375 15.1254 13.278 11.0529 17.8593 10.0702" stroke="#5DA9FF" stroke-width="1.17187" stroke-miterlimit="10" stroke-linecap="round" stroke-linejoin="round"/>
<path d="M23.0746 8.63079C24.0212 8.62313 24.6524 9.49165 24.3354 10.3104C23.4927 12.486 22.5599 14.6343 21.6504 16.7831C21.5953 16.9132 21.6348 16.9674 21.7426 17.0296C23.4456 18.0128 25.1449 19.0026 26.8496 19.9829C27.6894 20.4658 27.8231 21.4485 27.1224 22.1134C24.0347 25.0423 20.9422 27.9662 17.8508 30.8913C17.3323 31.3819 16.8217 31.4932 16.2901 31.2358C15.7111 30.9555 15.427 30.2966 15.6633 29.6858C15.9858 28.8523 16.3393 28.0306 16.6825 27.2052C17.2361 25.8737 17.7901 24.5422 18.3511 23.2138C18.4084 23.0782 18.3604 23.03 18.256 22.9699C16.5317 21.9784 14.7904 21.0067 13.0876 19.9788C12.295 19.5002 12.2013 18.5245 12.877 17.8842C15.9666 14.957 19.0651 12.039 22.1486 9.10524C22.433 8.83469 22.7451 8.64149 23.0746 8.63079Z" stroke="#5DA9FF" stroke-width="1.17187" stroke-miterlimit="10" stroke-linecap="round" stroke-linejoin="round"/>
<path d="M15.6556 1.88383V4.56032C15.6556 5.10938 15.3084 5.59422 14.7929 5.78289C14.3973 5.92774 14.0094 6.08852 13.63 6.26461C13.1316 6.49594 12.543 6.39899 12.1545 6.01047L10.262 4.11797C9.75508 3.6111 8.93328 3.6111 8.42641 4.11797L4.11797 8.42641C3.61117 8.93321 3.61117 9.755 4.11797 10.2619L6.01055 12.1544C6.39906 12.5429 6.49594 13.1316 6.26461 13.6299C6.08859 14.0093 5.92773 14.3972 5.78297 14.7928C5.59422 15.3084 5.10937 15.6555 4.56039 15.6555H1.88391C1.16703 15.6555 0.585938 16.2366 0.585938 16.9535V23.0465C0.585938 23.7633 1.16703 24.3444 1.88391 24.3444H4.56039C5.10937 24.3444 5.59422 24.6916 5.78297 25.2071C5.92773 25.6027 6.08859 25.9906 6.26461 26.37C6.49594 26.8684 6.39906 27.457 6.01055 27.8455L4.11797 29.738C3.61117 30.2449 3.61117 31.0667 4.11797 31.5736L8.42641 35.882C8.93328 36.3889 9.75508 36.3889 10.262 35.882L12.1545 33.9895C12.543 33.6009 13.1316 33.5041 13.63 33.7354C14.0094 33.9115 14.3973 34.0723 14.7929 34.217C15.3084 34.4058 15.6556 34.8906 15.6556 35.4396V38.1161C15.6556 38.833 16.2367 39.4141 16.9535 39.4141H23.0466C23.7634 39.4141 24.3445 38.833 24.3445 38.1161V35.4396C24.3445 34.8906 24.6916 34.4058 25.2072 34.217C25.6028 34.0723 25.9907 33.9115 26.3701 33.7354C26.8684 33.5041 27.4571 33.6009 27.8456 33.9895L29.7381 35.882C30.245 36.3889 31.0668 36.3889 31.5736 35.882L35.882 31.5736C36.3889 31.0667 36.3889 30.2449 35.882 29.738L33.9895 27.8455C33.601 27.457 33.5041 26.8684 33.7354 26.37C33.9115 25.9906 34.0723 25.6027 34.2171 25.2071C34.4058 24.6916 34.8906 24.3444 35.4397 24.3444H38.1162C38.833 24.3444 39.4141 23.7633 39.4141 23.0465V16.9535C39.4141 16.2366 38.833 15.6555 38.1162 15.6555H35.4397C34.8906 15.6555 34.4058 15.3084 34.2171 14.7928C34.0723 14.3972 33.9115 14.0093 33.7354 13.6299C33.5041 13.1316 33.601 12.5429 33.9895 12.1544L35.882 10.2619C36.3889 9.755 36.3889 8.93321 35.882 8.42641L31.5736 4.11797C31.0668 3.6111 30.245 3.6111 29.7381 4.11797L27.8456 6.01047C27.4571 6.39899 26.8684 6.49594 26.3701 6.26461C25.9907 6.08852 25.6028 5.92774 25.2072 5.78289C24.6916 5.59422 24.3445 5.10938 24.3445 4.56032V1.88383C24.3445 1.16704 23.7634 0.585941 23.0466 0.585941H16.9535C16.2367 0.585941 15.6556 1.16704 15.6556 1.88383Z" stroke="#5DA9FF" stroke-width="1.2" stroke-miterlimit="10" stroke-linecap="round" stroke-linejoin="round"/>
</g>
</g>
<defs>
<clipPath id="clip0_38_7773">
<rect width="40" height="40" fill="white"/>
</clipPath>
</defs>
</svg>
