<svg width="60" height="60" viewBox="0 0 60 60" fill="none" xmlns="http://www.w3.org/2000/svg">
<rect width="60" height="60" rx="12" fill="#F8FAFC"/>
<path d="M44.2234 35.3505V17.4994C44.2234 17.2401 44.0133 17.0299 43.7539 17.0299H34.6077C34.3484 17.0299 34.1382 17.24 34.1382 17.4994V26.1761H27.3636L25.3307 24.1412C24.8312 23.6416 24.8312 22.8288 25.3307 22.3292L27.5409 20.1191C28.6406 19.0194 29.2865 17.5317 29.3562 15.9781H29.4832C30.0279 15.9781 30.471 15.5339 30.471 14.9881V14.3863C30.471 13.8416 30.0279 13.3984 29.4832 13.3984H16.7695C16.2236 13.3984 15.7795 13.8416 15.7795 14.3863V14.9881C15.7795 15.5339 16.2236 15.9781 16.7695 15.9781H16.8964C16.966 17.5309 17.611 19.0185 18.7097 20.1192L20.9219 22.3292C21.4214 22.8288 21.4214 23.6417 20.9219 24.1412L18.7095 26.3535C17.6109 27.4521 16.9658 28.9398 16.8963 30.4945H16.7694C16.2235 30.4945 15.7794 30.9386 15.7794 31.4845L15.7793 32.0701C15.7793 32.6158 16.2234 33.06 16.7693 33.06H24.992L24.992 35.3223H16.3398C13.2748 35.3223 10.7812 37.8149 10.7812 40.8786C10.7812 43.9424 13.2748 46.4372 16.3398 46.4372H43.6631C46.7269 46.4372 49.2195 43.9436 49.2195 40.8786C49.2195 38.004 47.025 35.6324 44.2234 35.3505ZM38.2662 17.9689H40.0954V19.7981H38.2662V17.9689ZM35.0773 17.9689H37.3273V20.2677C37.3273 20.527 37.5374 20.7372 37.7968 20.7372H40.565C40.8243 20.7372 41.0345 20.527 41.0345 20.2677V17.9689H43.2845V26.1761H35.0773L35.0773 17.9689ZM40.0954 27.1151V28.9442H38.2662V27.1151H40.0954ZM35.0773 27.1151H37.3273V29.4138C37.3273 29.6731 37.5374 29.8833 37.7968 29.8833H40.565C40.8243 29.8833 41.0345 29.6731 41.0345 29.4138V27.1151H43.2845V35.3223H35.0773L35.0773 27.1151ZM29.1201 27.1151H30.9493V28.9442H29.1201V27.1151ZM28.181 27.1151V29.4138C28.181 29.6731 28.3912 29.8833 28.6505 29.8833H31.4188C31.6781 29.8833 31.8884 29.6731 31.8884 29.4138V27.1151H34.1383V35.3223H25.9312V27.1151H28.181ZM16.7695 15.039C16.7427 15.039 16.7185 15.0147 16.7185 14.9881V14.3863C16.7185 14.3602 16.7423 14.3375 16.7695 14.3375H29.4832C29.5097 14.3375 29.532 14.3598 29.532 14.3863V14.9881C29.532 15.0152 29.5092 15.039 29.4832 15.039H16.7695ZM19.3735 27.0174L21.5859 24.8051C22.4516 23.9395 22.4516 22.5309 21.5857 21.6652L19.3738 19.4555C18.4509 18.5307 17.9046 17.2832 17.8359 15.9781H28.4166C28.3479 17.2836 27.801 18.5309 26.8769 19.4552L24.6667 21.6653C23.801 22.5309 23.801 23.9395 24.6665 24.805L26.0362 26.1762H25.4616C25.2023 26.1762 24.992 26.3863 24.992 26.6457V30.4946H17.8359C17.9045 29.188 18.4505 27.9405 19.3735 27.0174ZM16.7694 32.1209C16.7431 32.1209 16.7184 32.0962 16.7184 32.0701L16.7185 31.4845C16.7185 31.4582 16.7432 31.4335 16.7695 31.4335H24.9921L24.992 32.121L16.7694 32.1209ZM43.6631 45.4982H16.3398C13.7926 45.4982 11.7202 43.426 11.7202 40.8786C11.7202 38.3313 13.7925 36.2613 16.3398 36.2613H43.6631C46.2091 36.2613 48.2805 38.3326 48.2805 40.8786C48.2805 43.4246 46.2091 45.4982 43.6631 45.4982ZM43.6631 36.888H16.3398C14.1381 36.888 12.347 38.6782 12.347 40.8786C12.347 43.079 14.1382 44.8715 16.3398 44.8715H43.6631C45.8635 44.8715 47.6537 43.0802 47.6537 40.8786C47.6537 38.677 45.8635 36.888 43.6631 36.888ZM16.3398 43.9325C14.6559 43.9325 13.2859 42.5626 13.2859 40.8786C13.2859 39.1946 14.6559 37.827 16.3398 37.827C18.0237 37.827 19.3937 39.1959 19.3937 40.8786C19.3937 42.5613 18.0237 43.9325 16.3398 43.9325ZM18.9083 43.9325C19.7784 43.1995 20.3327 42.1027 20.3327 40.8786C20.3327 39.6545 19.7787 38.5596 18.9088 37.827H22.8791C22.0094 38.5595 21.4553 39.6554 21.4553 40.8786C21.4553 42.1018 22.0095 43.1995 22.8797 43.9325H18.9083ZM25.4484 43.9325C23.7644 43.9325 22.3945 42.5626 22.3945 40.8786C22.3945 39.1946 23.7644 37.827 25.4484 37.827C27.1323 37.827 28.5 39.1959 28.5 40.8786C28.5 42.5613 27.1311 43.9325 25.4484 43.9325ZM28.0154 43.9325C28.8851 43.1995 29.439 42.1027 29.439 40.8786C29.439 39.6545 28.8853 38.5596 28.016 37.827H31.9855C31.1158 38.5595 30.5617 39.6554 30.5617 40.8786C30.5617 42.1018 31.1159 43.1995 31.9861 43.9325H28.0154ZM34.5547 43.9325C32.8707 43.9325 31.5008 42.5626 31.5008 40.8786C31.5008 39.1946 32.8707 37.827 34.5547 37.827C36.2387 37.827 37.6085 39.1959 37.6085 40.8786C37.6085 42.5613 36.2386 43.9325 34.5547 43.9325ZM37.1231 43.9325C37.9933 43.1995 38.5475 42.1027 38.5475 40.8786C38.5475 39.6545 37.9935 38.5596 37.1237 37.827H41.094C40.2242 38.5595 39.6702 39.6554 39.6702 40.8786C39.6702 42.1018 40.2244 43.1995 41.0945 43.9325H37.1231ZM43.6632 43.9325C41.9792 43.9325 40.6093 42.5626 40.6093 40.8786C40.6093 39.1946 41.9792 37.827 43.6632 37.827C45.3472 37.827 46.7148 39.1959 46.7148 40.8786C46.7148 42.5613 45.3459 43.9325 43.6632 43.9325ZM16.3398 38.9054C15.2505 38.9054 14.3644 39.7906 14.3644 40.8786C14.3644 41.9667 15.2505 42.854 16.3398 42.854C17.429 42.854 18.3152 41.9678 18.3152 40.8786C18.3152 39.7894 17.429 38.9054 16.3398 38.9054ZM16.3398 41.9149C15.7684 41.9149 15.3034 41.45 15.3034 40.8785C15.3034 40.307 15.7683 39.8444 16.3398 39.8444C16.9112 39.8444 17.3763 40.3083 17.3763 40.8785C17.3763 41.4488 16.9113 41.9149 16.3398 41.9149ZM25.4484 38.9054C24.3591 38.9054 23.4729 39.7906 23.4729 40.8786C23.4729 41.9667 24.3591 42.854 25.4484 42.854C26.5376 42.854 27.4216 41.9678 27.4216 40.8786C27.4216 39.7894 26.5364 38.9054 25.4484 38.9054ZM25.4484 41.9149C24.8769 41.9149 24.4119 41.45 24.4119 40.8785C24.4119 40.307 24.8768 39.8444 25.4484 39.8444C26.0199 39.8444 26.4825 40.3083 26.4825 40.8785C26.4825 41.4488 26.0186 41.9149 25.4484 41.9149ZM34.5547 38.9054C33.4655 38.9054 32.5792 39.7906 32.5792 40.8786C32.5792 41.9667 33.4655 42.854 34.5547 42.854C35.6439 42.854 36.5301 41.9678 36.5301 40.8786C36.5301 39.7894 35.6439 38.9054 34.5547 38.9054ZM34.5547 41.9149C33.9832 41.9149 33.5182 41.45 33.5182 40.8785C33.5182 40.307 33.9831 39.8444 34.5547 39.8444C35.1262 39.8444 35.5911 40.3083 35.5911 40.8785C35.5911 41.4488 35.1262 41.9149 34.5547 41.9149ZM43.6632 38.9054C42.574 38.9054 41.6878 39.7906 41.6878 40.8786C41.6878 41.9667 42.574 42.854 43.6632 42.854C44.7524 42.854 45.6364 41.9678 45.6364 40.8786C45.6364 39.7894 44.7513 38.9054 43.6632 38.9054ZM43.6632 41.9149C43.0918 41.9149 42.6268 41.45 42.6268 40.8785C42.6268 40.307 43.0917 39.8444 43.6632 39.8444C44.2347 39.8444 44.6973 40.3083 44.6973 40.8785C44.6973 41.4488 44.2334 41.9149 43.6632 41.9149Z" fill="#5DA9FF" stroke="#5DA9FF" stroke-width="0.2"/>
</svg>
