<svg width="40" height="40" viewBox="0 0 40 40" fill="none" xmlns="http://www.w3.org/2000/svg">
<g clip-path="url(#clip0_38_7819)">
<path fill-rule="evenodd" clip-rule="evenodd" d="M27.9822 38.0547C22.6515 29.2999 34.0133 27.1598 34.5191 19.3389C42.6169 26.1153 39.8549 43.5748 27.9822 38.0547Z" stroke="#5DA9FF" stroke-width="1.2" stroke-miterlimit="22.9256" stroke-linecap="round" stroke-linejoin="round"/>
<path d="M25.1797 39.1441C29.5765 38.0935 33.2341 35.3309 35.3353 27.5488" stroke="#5DA9FF" stroke-width="1.2" stroke-miterlimit="22.9256" stroke-linecap="round" stroke-linejoin="round"/>
<path fill-rule="evenodd" clip-rule="evenodd" d="M28.5667 8.18494C23.6502 17.1789 16.1159 8.40928 9.08984 11.8817C10.9095 1.48058 27.4108 -4.85724 28.5667 8.18494Z" stroke="#5DA9FF" stroke-width="1.2" stroke-miterlimit="22.9256" stroke-linecap="round" stroke-linejoin="round"/>
<path d="M30.9087 10.0666C27.8004 6.78418 23.5792 4.99793 15.7891 7.06923" stroke="#5DA9FF" stroke-width="1.2" stroke-miterlimit="22.9256" stroke-linecap="round" stroke-linejoin="round"/>
<path fill-rule="evenodd" clip-rule="evenodd" d="M4.7523 23.4179C14.9995 23.1788 11.1719 34.0885 17.6922 38.437C7.77478 42.0616 -5.96464 30.94 4.7523 23.4179Z" stroke="#5DA9FF" stroke-width="1.2" stroke-miterlimit="22.9256" stroke-linecap="round" stroke-linejoin="round"/>
<path d="M5.20754 20.4473C4.1765 23.9146 4.33192 27.52 7.34955 31.7482" stroke="#5DA9FF" stroke-width="1.2" stroke-miterlimit="22.9256" stroke-linecap="round" stroke-linejoin="round"/>
<path d="M15.5245 23.1134H12.8008V16.8877H15.5245" stroke="#5DA9FF" stroke-width="1.2" stroke-miterlimit="22.9256" stroke-linecap="round" stroke-linejoin="round"/>
<path d="M12.8008 20H14.4347" stroke="#5DA9FF" stroke-width="1.2" stroke-miterlimit="22.9256" stroke-linecap="round" stroke-linejoin="round"/>
<path d="M21.3629 21.557C21.3629 22.413 20.6625 23.1134 19.8064 23.1134C18.9504 23.1134 18.25 22.413 18.25 21.557V18.4441C18.25 17.5881 18.9504 16.8877 19.8064 16.8877C20.6625 16.8877 21.3629 17.5881 21.3629 18.4441" stroke="#5DA9FF" stroke-width="1.2" stroke-miterlimit="22.9256" stroke-linecap="round" stroke-linejoin="round"/>
<path fill-rule="evenodd" clip-rule="evenodd" d="M25.6424 16.8877C26.4985 16.8877 27.1988 17.5881 27.1988 18.4441V21.557C27.1988 22.413 26.4985 23.1134 25.6424 23.1134C24.7863 23.1134 24.0859 22.413 24.0859 21.557V18.4441C24.0859 17.5881 24.7863 16.8877 25.6424 16.8877Z" stroke="#5DA9FF" stroke-width="1.2" stroke-miterlimit="22.9256" stroke-linecap="round" stroke-linejoin="round"/>
</g>
<defs>
<clipPath id="clip0_38_7819">
<rect width="40" height="40" fill="white"/>
</clipPath>
</defs>
</svg>
