<svg width="60" height="60" viewBox="0 0 60 60" fill="none" xmlns="http://www.w3.org/2000/svg">
<rect width="60" height="60" rx="12" fill="#F8FAFC"/>
<g clip-path="url(#clip0_38_7765)">
<path fill-rule="evenodd" clip-rule="evenodd" d="M30.992 40.8058L29.3263 39.8441L29.9566 38.7527C30.1587 38.4001 30.2128 37.9818 30.1071 37.5893C30.0014 37.1969 29.7445 36.8624 29.3927 36.659C29.1228 36.5027 28.8114 36.4334 28.5007 36.4603C28.4944 36.3226 28.4734 36.1859 28.4382 36.0526C28.324 35.6205 28.0544 35.2457 27.6811 34.9999C27.3077 34.7541 26.8569 34.6546 26.4148 34.7205C26.437 34.316 26.349 33.913 26.1602 33.5546C25.9714 33.1962 25.6889 32.8957 25.3427 32.6852C24.9965 32.4747 24.5998 32.3621 24.1946 32.3594C23.7895 32.3567 23.3913 32.464 23.0423 32.6698C22.9251 32.321 22.7098 32.0135 22.4221 31.784C22.1344 31.5545 21.7867 31.4129 21.4206 31.3762C21.0545 31.3394 20.6855 31.409 20.358 31.5767C20.0304 31.7444 19.7582 32.003 19.574 32.3215L18.9217 33.4527L16.953 32.3231L20.7935 23.1278C23.4067 22.1721 25.843 21.7541 28.0655 21.8809C26.4254 22.7858 25.1316 23.7934 24.214 24.8904C23.1341 26.1818 22.7581 27.6247 22.3601 29.1518C22.3048 29.3667 22.2494 29.583 22.1905 29.802C22.1741 29.863 22.1703 29.9268 22.1791 29.9894C22.188 30.0519 22.2094 30.1121 22.2421 30.1662C22.2749 30.2203 22.3182 30.2672 22.3695 30.3041C22.4208 30.341 22.479 30.3672 22.5407 30.381C25.4157 31.0261 26.7645 30.6409 27.8887 28.8558L27.9145 28.8175C28.2684 28.2543 28.5083 27.9035 28.9428 27.8058C29.9221 27.5896 30.9362 27.5853 31.9173 27.7933C32.2506 27.854 32.5462 28.0445 32.7392 28.3229C35.0355 31.4791 37.5823 33.0643 40.3466 33.0643C40.7093 33.0637 41.0714 33.0368 41.4302 32.9839C41.6023 33.2835 41.6707 33.6314 41.6248 33.9739C41.579 34.3163 41.4215 34.634 41.1767 34.8778C40.932 35.1216 40.6136 35.2779 40.271 35.3224C39.9284 35.3669 39.5807 35.2971 39.2818 35.1239L35.7472 33.0831C35.6912 33.0503 35.637 33.0143 35.585 32.9754C35.5361 32.9358 35.4797 32.9064 35.4192 32.889C35.3587 32.8716 35.2953 32.8666 35.2328 32.8742C35.1703 32.8819 35.11 32.9021 35.0555 32.9335C35.0009 32.965 34.9533 33.0071 34.9154 33.0574C34.8775 33.1077 34.8501 33.1651 34.8349 33.2262C34.8197 33.2872 34.8169 33.3508 34.8268 33.413C34.8367 33.4751 34.8589 33.5347 34.8923 33.5881C34.9257 33.6415 34.9695 33.6876 35.0211 33.7236C35.1029 33.7868 35.189 33.8441 35.2789 33.895L38.8136 35.9355C39.0143 36.0515 39.2301 36.139 39.4549 36.1957C39.4562 36.4614 39.386 36.7226 39.2518 36.952C39.0502 37.2998 38.7191 37.5535 38.3308 37.6576C37.9426 37.7617 37.5289 37.7078 37.1804 37.5075L33.7677 35.5371C33.6599 35.475 33.5319 35.4583 33.4118 35.4906C33.2918 35.5229 33.1894 35.6016 33.1274 35.7093C33.0653 35.8171 33.0486 35.945 33.0809 36.0651C33.1132 36.1852 33.1919 36.2875 33.2996 36.3496L36.6717 38.294C36.6438 38.4671 36.5852 38.6338 36.4985 38.7862C36.3089 39.1116 35.9983 39.349 35.6345 39.4465C35.2707 39.544 34.8831 39.4939 34.5561 39.307L31.5116 37.5507C31.4042 37.4919 31.2779 37.4775 31.16 37.5107C31.0421 37.5438 30.9418 37.6217 30.8806 37.7279C30.8194 37.834 30.8023 37.9599 30.8327 38.0785C30.8632 38.1972 30.9389 38.2992 31.0436 38.3627L32.9234 39.4471C32.9829 39.7684 32.9187 40.1003 32.7437 40.3762C32.5687 40.6521 32.2958 40.8516 31.9798 40.9347C31.8148 40.9796 31.6425 40.9913 31.473 40.9692C31.3034 40.9471 31.14 40.8916 30.992 40.8058ZM27.2655 40.3449C27.4025 40.4235 27.5651 40.4448 27.7177 40.4039C27.8703 40.3631 28.0005 40.2636 28.08 40.127L29.1415 38.2841C29.1807 38.2164 29.2061 38.1417 29.2164 38.0642C29.2267 37.9867 29.2216 37.9079 29.2014 37.8323C29.1812 37.7568 29.1463 37.6859 29.0987 37.6239C29.0511 37.5618 28.9918 37.5098 28.9241 37.4707C28.7874 37.3928 28.6256 37.3721 28.4737 37.413C28.3219 37.4538 28.1923 37.553 28.1132 37.6889L27.048 39.5326C27.0088 39.6002 26.9833 39.6749 26.973 39.7524C26.9627 39.8298 26.9678 39.9085 26.988 39.984C27.0082 40.0595 27.0432 40.1303 27.0908 40.1922C27.1384 40.2542 27.1977 40.3062 27.2655 40.3451V40.3449ZM25.5521 39.7269C25.6645 39.697 25.7698 39.6453 25.8622 39.5746C25.9545 39.504 26.032 39.4158 26.0902 39.3152L26.2377 39.0635V39.0629L27.4466 36.9675C27.5618 36.7633 27.5923 36.5222 27.5317 36.2958C27.471 36.0694 27.3241 35.8758 27.1223 35.7565C26.9183 35.6395 26.6763 35.6079 26.4492 35.6686C26.222 35.7293 26.028 35.8774 25.9096 36.0805L24.5533 38.4293C24.4367 38.6335 24.4057 38.8755 24.4672 39.1025C24.5287 39.3295 24.6777 39.5228 24.8814 39.6402C24.9819 39.6983 25.0929 39.7359 25.2081 39.7509C25.3232 39.7658 25.4402 39.7578 25.5522 39.7272L25.5521 39.7269ZM22.7435 38.926C22.9089 38.8821 23.0641 38.806 23.2001 38.7021C23.336 38.5982 23.4502 38.4684 23.536 38.3204L23.7423 37.9603V37.9596L25.3048 35.2509C25.3912 35.1028 25.4474 34.939 25.4703 34.7691C25.4932 34.5992 25.4824 34.4264 25.4383 34.2607C25.3943 34.0949 25.318 33.9395 25.2138 33.8034C25.1096 33.6672 24.9795 33.553 24.831 33.4672C24.6825 33.3814 24.5186 33.3258 24.3485 33.3036C24.1785 33.2813 24.0058 33.2929 23.8402 33.3375C23.6747 33.3822 23.5196 33.4591 23.3838 33.5639C23.2481 33.6686 23.1343 33.7991 23.0491 33.9479L21.4422 36.7322C21.4422 36.7329 21.4422 36.7336 21.4384 36.7336L21.2762 37.0175C21.147 37.2407 21.0869 37.4972 21.1037 37.7546C21.1205 38.0119 21.2134 38.2585 21.3706 38.463C21.5278 38.6675 21.7422 38.8207 21.9865 38.9031C22.2309 38.9855 22.4943 38.9935 22.7432 38.926H22.7435ZM19.2973 36.6197C19.5209 36.7489 19.7866 36.7841 20.036 36.7176C20.2855 36.651 20.4984 36.4882 20.6279 36.2648L22.0727 33.7648C22.202 33.541 22.237 33.2749 22.1701 33.0253C22.1031 32.7756 21.9398 32.5627 21.7159 32.4335C21.4921 32.3043 21.226 32.2692 20.9764 32.3362C20.7267 32.4031 20.5138 32.5664 20.3846 32.7903L18.9435 35.2894C18.8142 35.5128 18.7789 35.7784 18.8452 36.0279C18.9116 36.2773 19.0742 36.4903 19.2973 36.62V36.6197ZM15.8106 32.6259L20.3257 21.8129C20.3662 21.7143 20.3662 21.6037 20.3257 21.5051C20.3059 21.456 20.2764 21.4113 20.2391 21.3737C20.2017 21.3362 20.1572 21.3065 20.1082 21.2864L16.0059 19.5736C15.9582 19.5531 15.9068 19.5428 15.8548 19.5433C15.7753 19.5429 15.6974 19.5662 15.6311 19.6101C15.5648 19.6541 15.5131 19.7168 15.4826 19.7903L10.9675 30.6043C10.9266 30.703 10.9265 30.8138 10.9672 30.9126C11.008 31.0113 11.0863 31.0897 11.1849 31.1308L15.2872 32.8424C15.3853 32.8828 15.4955 32.8828 15.5935 32.8422C15.6916 32.8017 15.7697 32.724 15.8106 32.6261V32.6259ZM30.3362 21.8097C27.9036 22.8761 26.0862 24.1152 24.9329 25.4918C23.9856 26.6215 23.6392 27.9654 23.2706 29.3877C23.2522 29.4471 23.2374 29.5068 23.2227 29.5661C25.5816 30.0217 26.3482 29.5433 27.0964 28.3557L27.1223 28.3177C27.4871 27.7372 27.8999 27.0793 28.7366 26.8917C29.8455 26.6458 30.9941 26.6401 32.1054 26.8747C32.6679 26.9831 33.1669 27.3043 33.4986 27.7715C36.3441 31.6861 39.4439 32.9456 42.9673 31.6143L39.2486 22.7128C36.7312 22.3512 33.9669 22.0121 31.0183 21.7036C30.7856 21.6756 30.5496 21.7123 30.3364 21.8097H30.3362ZM39.8898 20.7645C39.8409 20.7848 39.7965 20.8144 39.7591 20.8519C39.7218 20.8893 39.6921 20.9337 39.6719 20.9826C39.6517 21.0315 39.6414 21.0839 39.6414 21.1367C39.6415 21.1896 39.652 21.242 39.6723 21.2908L44.1873 32.1041C44.2073 32.1529 44.2368 32.1972 44.2742 32.2343C44.3115 32.2715 44.356 32.3008 44.4048 32.3204C44.4532 32.3411 44.5052 32.3517 44.5578 32.3517C44.6104 32.3517 44.6624 32.3411 44.7108 32.3204L48.813 30.6081C48.8619 30.5882 48.9064 30.5586 48.9438 30.5212C48.9811 30.4838 49.0106 30.4392 49.0305 30.3902C49.071 30.2916 49.071 30.181 49.0305 30.0825L44.5155 19.2684C44.4953 19.2198 44.4658 19.1756 44.4286 19.1384C44.3914 19.1013 44.3472 19.0718 44.2986 19.0517C44.25 19.0316 44.1979 19.0213 44.1453 19.0213C44.0927 19.0214 44.0406 19.0319 43.992 19.0521L39.8898 20.7645ZM32.2234 41.8401C32.5076 41.7648 32.7741 41.6339 33.0075 41.4551C33.241 41.2763 33.4367 41.053 33.5834 40.7981C33.7256 40.5481 33.8195 40.2735 33.8598 39.9887L34.0847 40.1192C34.4409 40.3253 34.845 40.4342 35.2566 40.4347C35.4657 40.4346 35.6738 40.4071 35.8758 40.3529C36.1756 40.2742 36.4568 40.1366 36.703 39.9482C36.9491 39.7598 37.1553 39.5242 37.3095 39.2553C37.4236 39.056 37.508 38.8412 37.5602 38.6176C37.6833 38.6371 37.8078 38.647 37.9324 38.6471C38.3643 38.6467 38.7885 38.5333 39.1629 38.3181C39.5373 38.103 39.8488 37.7935 40.0665 37.4205C40.2714 37.0634 40.3841 36.6608 40.3946 36.2492C40.7776 36.1997 41.1439 36.0622 41.4649 35.8474C41.7858 35.6326 42.0526 35.3463 42.2444 35.0111C42.4361 34.6759 42.5476 34.3008 42.5701 33.9153C42.5926 33.5298 42.5254 33.1443 42.3739 32.789C42.6974 32.7034 43.0161 32.6004 43.3285 32.4805C43.4325 32.7207 43.6044 32.9252 43.8231 33.0689C44.0419 33.2125 44.2978 33.2891 44.5595 33.2891C44.7355 33.289 44.9097 33.2537 45.0719 33.1852L49.1741 31.4736C49.5015 31.3359 49.7612 31.0745 49.8965 30.7461C50.0318 30.4178 50.0318 30.0493 49.8966 29.721L45.3816 18.9075C45.2449 18.5799 44.9837 18.3199 44.6554 18.1847C44.327 18.0496 43.9585 18.0504 43.6308 18.187L39.5285 19.8988C39.2012 20.0367 38.9416 20.2983 38.8063 20.6267C38.671 20.9551 38.6709 21.3237 38.8061 21.6522L38.8319 21.706C36.4509 21.3724 33.8598 21.0584 31.1177 20.7716C30.7227 20.7256 30.3227 20.7877 29.9603 20.9513C29.8387 21.0044 29.7207 21.0577 29.6064 21.1112C27.078 20.687 24.2768 20.9767 21.2548 21.9737C21.3301 21.6639 21.2925 21.3373 21.1486 21.0527C21.0047 20.7682 20.764 20.5443 20.4698 20.4212L16.367 18.709C16.0393 18.5725 15.6709 18.5718 15.3427 18.7068C15.0144 18.8418 14.7532 19.1016 14.6163 19.4291L10.1014 30.2436C9.96615 30.5718 9.9662 30.9403 10.1015 31.2685C10.2369 31.5968 10.4965 31.8582 10.8238 31.9958L14.9261 33.7075C15.0882 33.7759 15.2624 33.8112 15.4384 33.8114C15.6142 33.8113 15.7882 33.7768 15.9507 33.7098C16.2081 33.6047 16.426 33.4213 16.5736 33.1857L18.4497 34.2645L18.1294 34.8207C17.9445 35.1395 17.8559 35.505 17.8741 35.8731C17.8923 36.2412 18.0167 36.5962 18.2322 36.8951C18.4477 37.1941 18.7451 37.4244 19.0885 37.5581C19.4319 37.6918 19.8067 37.7233 20.1677 37.6488C20.1641 37.9441 20.2192 38.2371 20.3296 38.5109C20.4401 38.7848 20.6037 39.034 20.8111 39.2442C21.0184 39.4544 21.2654 39.6214 21.5377 39.7356C21.8101 39.8497 22.1023 39.9088 22.3976 39.9093C22.5966 39.9088 22.7948 39.8827 22.9873 39.8318C23.2144 39.7698 23.4307 39.6734 23.6286 39.5458C23.7623 39.8846 23.9948 40.1753 24.2958 40.3804C24.5968 40.5855 24.9524 40.6954 25.3166 40.6958C25.4785 40.6956 25.6396 40.6743 25.7959 40.6324C25.9287 40.5959 26.0572 40.5451 26.1791 40.4809C26.3021 40.7438 26.4974 40.9663 26.7422 41.1224C26.9869 41.2784 27.2711 41.3616 27.5613 41.3622C27.8189 41.3621 28.0724 41.2974 28.2984 41.1739C28.5244 41.0504 28.7158 40.872 28.855 40.6553L30.5247 41.6183C30.8626 41.815 31.2468 41.9183 31.6378 41.9176C31.8355 41.9172 32.0323 41.8911 32.2234 41.8401Z" fill="#5DA9FF" stroke="#5DA9FF" stroke-width="0.4"/>
</g>
<defs>
<clipPath id="clip0_38_7765">
<rect width="40" height="40" fill="white" transform="translate(10 10)"/>
</clipPath>
</defs>
</svg>
