<svg width="40" height="40" viewBox="0 0 40 40" fill="none" xmlns="http://www.w3.org/2000/svg">
<g clip-path="url(#clip0_38_7766)">
<path fill-rule="evenodd" clip-rule="evenodd" d="M20.992 30.8058L19.3263 29.8441L19.9566 28.7527C20.1587 28.4001 20.2128 27.9818 20.1071 27.5893C20.0014 27.1969 19.7445 26.8624 19.3927 26.659C19.1228 26.5027 18.8114 26.4334 18.5007 26.4603C18.4944 26.3226 18.4734 26.1859 18.4382 26.0526C18.324 25.6205 18.0544 25.2457 17.6811 24.9999C17.3077 24.7541 16.8569 24.6546 16.4148 24.7205C16.437 24.316 16.349 23.913 16.1602 23.5546C15.9714 23.1962 15.6889 22.8957 15.3427 22.6852C14.9965 22.4747 14.5998 22.3621 14.1946 22.3594C13.7895 22.3567 13.3913 22.464 13.0423 22.6698C12.9251 22.321 12.7098 22.0135 12.4221 21.784C12.1344 21.5545 11.7867 21.4129 11.4206 21.3762C11.0545 21.3394 10.6855 21.409 10.358 21.5767C10.0304 21.7444 9.75822 22.003 9.57398 22.3215L8.92171 23.4527L6.95296 22.3231L10.7935 13.1278C13.4067 12.1721 15.843 11.7541 18.0655 11.8809C16.4254 12.7858 15.1316 13.7934 14.214 14.8904C13.1341 16.1818 12.7581 17.6247 12.3601 19.1518C12.3048 19.3667 12.2494 19.583 12.1905 19.802C12.1741 19.863 12.1703 19.9268 12.1791 19.9894C12.188 20.0519 12.2094 20.1121 12.2421 20.1662C12.2749 20.2203 12.3182 20.2672 12.3695 20.3041C12.4208 20.341 12.479 20.3672 12.5407 20.381C15.4157 21.0261 16.7645 20.6409 17.8887 18.8558L17.9145 18.8175C18.2684 18.2543 18.5083 17.9035 18.9428 17.8058C19.9221 17.5896 20.9362 17.5853 21.9173 17.7933C22.2506 17.854 22.5462 18.0445 22.7392 18.3229C25.0355 21.4791 27.5823 23.0643 30.3466 23.0643C30.7093 23.0637 31.0714 23.0368 31.4302 22.9839C31.6023 23.2835 31.6707 23.6314 31.6248 23.9739C31.579 24.3163 31.4215 24.634 31.1767 24.8778C30.932 25.1216 30.6136 25.2779 30.271 25.3224C29.9284 25.3669 29.5807 25.2971 29.2818 25.1239L25.7472 23.0831C25.6912 23.0503 25.637 23.0143 25.585 22.9754C25.5361 22.9358 25.4797 22.9064 25.4192 22.889C25.3587 22.8716 25.2953 22.8666 25.2328 22.8742C25.1703 22.8819 25.11 22.9021 25.0555 22.9335C25.0009 22.965 24.9533 23.0071 24.9154 23.0574C24.8775 23.1077 24.8501 23.1651 24.8349 23.2262C24.8197 23.2872 24.8169 23.3508 24.8268 23.413C24.8367 23.4751 24.8589 23.5347 24.8923 23.5881C24.9257 23.6415 24.9695 23.6876 25.0211 23.7236C25.1029 23.7868 25.189 23.8441 25.2789 23.895L28.8136 25.9355C29.0143 26.0515 29.2301 26.139 29.4549 26.1957C29.4562 26.4614 29.386 26.7226 29.2518 26.952C29.0502 27.2998 28.7191 27.5535 28.3308 27.6576C27.9426 27.7617 27.5289 27.7078 27.1804 27.5075L23.7677 25.5371C23.6599 25.475 23.5319 25.4583 23.4118 25.4906C23.2918 25.5229 23.1894 25.6016 23.1274 25.7093C23.0653 25.8171 23.0486 25.945 23.0809 26.0651C23.1132 26.1852 23.1919 26.2875 23.2996 26.3496L26.6717 28.294C26.6438 28.4671 26.5852 28.6338 26.4985 28.7862C26.3089 29.1116 25.9983 29.349 25.6345 29.4465C25.2707 29.544 24.8831 29.4939 24.5561 29.307L21.5116 27.5507C21.4042 27.4919 21.2779 27.4775 21.16 27.5107C21.0421 27.5438 20.9418 27.6217 20.8806 27.7279C20.8194 27.834 20.8023 27.9599 20.8327 28.0785C20.8632 28.1972 20.9389 28.2992 21.0436 28.3627L22.9234 29.4471C22.9829 29.7684 22.9187 30.1003 22.7437 30.3762C22.5687 30.6521 22.2958 30.8516 21.9798 30.9347C21.8148 30.9796 21.6425 30.9913 21.473 30.9692C21.3034 30.9471 21.14 30.8916 20.992 30.8058ZM17.2655 30.3449C17.4025 30.4235 17.5651 30.4448 17.7177 30.4039C17.8703 30.3631 18.0005 30.2636 18.08 30.127L19.1415 28.2841C19.1807 28.2164 19.2061 28.1417 19.2164 28.0642C19.2267 27.9867 19.2216 27.9079 19.2014 27.8323C19.1812 27.7568 19.1463 27.6859 19.0987 27.6239C19.0511 27.5618 18.9918 27.5098 18.9241 27.4707C18.7874 27.3928 18.6256 27.3721 18.4737 27.413C18.3219 27.4538 18.1923 27.553 18.1132 27.6889L17.048 29.5326C17.0088 29.6002 16.9833 29.6749 16.973 29.7524C16.9627 29.8298 16.9678 29.9085 16.988 29.984C17.0082 30.0595 17.0432 30.1303 17.0908 30.1922C17.1384 30.2542 17.1977 30.3062 17.2655 30.3451V30.3449ZM15.5521 29.7269C15.6645 29.697 15.7698 29.6453 15.8622 29.5746C15.9545 29.504 16.032 29.4158 16.0902 29.3152L16.2377 29.0635V29.0629L17.4466 26.9675C17.5618 26.7633 17.5923 26.5222 17.5317 26.2958C17.471 26.0694 17.3241 25.8758 17.1223 25.7565C16.9183 25.6395 16.6763 25.6079 16.4492 25.6686C16.222 25.7293 16.028 25.8774 15.9096 26.0805L14.5533 28.4293C14.4367 28.6335 14.4057 28.8755 14.4672 29.1025C14.5287 29.3295 14.6777 29.5228 14.8814 29.6402C14.9819 29.6983 15.0929 29.7359 15.2081 29.7509C15.3232 29.7658 15.4402 29.7578 15.5522 29.7272L15.5521 29.7269ZM12.7435 28.926C12.9089 28.8821 13.0641 28.806 13.2001 28.7021C13.336 28.5982 13.4502 28.4684 13.536 28.3204L13.7423 27.9603V27.9596L15.3048 25.2509C15.3912 25.1028 15.4474 24.939 15.4703 24.7691C15.4932 24.5992 15.4824 24.4264 15.4383 24.2607C15.3943 24.0949 15.318 23.9395 15.2138 23.8034C15.1096 23.6672 14.9795 23.553 14.831 23.4672C14.6825 23.3814 14.5186 23.3258 14.3485 23.3036C14.1785 23.2813 14.0058 23.2929 13.8402 23.3375C13.6747 23.3822 13.5196 23.4591 13.3838 23.5639C13.2481 23.6686 13.1343 23.7991 13.0491 23.9479L11.4422 26.7322C11.4422 26.7329 11.4422 26.7336 11.4384 26.7336L11.2762 27.0175C11.147 27.2407 11.0869 27.4972 11.1037 27.7546C11.1205 28.0119 11.2134 28.2585 11.3706 28.463C11.5278 28.6675 11.7422 28.8207 11.9865 28.9031C12.2309 28.9855 12.4943 28.9935 12.7432 28.926H12.7435ZM9.29734 26.6197C9.52089 26.7489 9.78657 26.7841 10.036 26.7176C10.2855 26.651 10.4984 26.4882 10.6279 26.2648L12.0727 23.7648C12.202 23.541 12.237 23.2749 12.1701 23.0253C12.1031 22.7756 11.9398 22.5627 11.7159 22.4335C11.4921 22.3043 11.226 22.2692 10.9764 22.3362C10.7267 22.4031 10.5138 22.5664 10.3846 22.7903L8.94351 25.2894C8.81424 25.5128 8.77889 25.7784 8.84523 26.0279C8.91156 26.2773 9.07416 26.4903 9.29734 26.62V26.6197ZM5.81062 22.6259L10.3257 11.8129C10.3662 11.7143 10.3662 11.6037 10.3257 11.5051C10.3059 11.456 10.2764 11.4113 10.2391 11.3737C10.2017 11.3362 10.1572 11.3065 10.1082 11.2864L6.00593 9.57357C5.9582 9.55314 5.90675 9.54284 5.85484 9.54333C5.77529 9.5429 5.6974 9.56615 5.63111 9.61013C5.56481 9.65411 5.51311 9.71682 5.48257 9.79028L0.967495 20.6043C0.926567 20.703 0.926478 20.8138 0.967247 20.9126C1.00802 21.0113 1.08631 21.0897 1.18492 21.1308L5.28718 22.8424C5.38531 22.8828 5.49545 22.8828 5.59354 22.8422C5.69162 22.8017 5.76967 22.724 5.81062 22.6261V22.6259ZM20.3362 11.8097C17.9036 12.8761 16.0862 14.1152 14.9329 15.4918C13.9856 16.6215 13.6392 17.9654 13.2706 19.3877C13.2522 19.4471 13.2374 19.5068 13.2227 19.5661C15.5816 20.0217 16.3482 19.5433 17.0964 18.3557L17.1223 18.3177C17.4871 17.7372 17.8999 17.0793 18.7366 16.8917C19.8455 16.6458 20.9941 16.6401 22.1054 16.8747C22.6679 16.9831 23.1669 17.3043 23.4986 17.7715C26.3441 21.6861 29.4439 22.9456 32.9673 21.6143L29.2486 12.7128C26.7312 12.3512 23.9669 12.0121 21.0183 11.7036C20.7856 11.6756 20.5496 11.7123 20.3364 11.8097H20.3362ZM29.8898 10.7645C29.8409 10.7848 29.7965 10.8144 29.7591 10.8519C29.7218 10.8893 29.6921 10.9337 29.6719 10.9826C29.6517 11.0315 29.6414 11.0839 29.6414 11.1367C29.6415 11.1896 29.652 11.242 29.6723 11.2908L34.1873 22.1041C34.2073 22.1529 34.2368 22.1972 34.2742 22.2343C34.3115 22.2715 34.356 22.3008 34.4048 22.3204C34.4532 22.3411 34.5052 22.3517 34.5578 22.3517C34.6104 22.3517 34.6624 22.3411 34.7108 22.3204L38.813 20.6081C38.8619 20.5882 38.9064 20.5586 38.9438 20.5212C38.9811 20.4838 39.0106 20.4392 39.0305 20.3902C39.071 20.2916 39.071 20.181 39.0305 20.0825L34.5155 9.26841C34.4953 9.2198 34.4658 9.17564 34.4286 9.13845C34.3914 9.10126 34.3472 9.07177 34.2986 9.05168C34.25 9.03159 34.1979 9.02128 34.1453 9.02135C34.0927 9.02142 34.0406 9.03186 33.992 9.05208L29.8898 10.7645ZM22.2234 31.8401C22.5076 31.7648 22.7741 31.6339 23.0075 31.4551C23.241 31.2763 23.4367 31.053 23.5834 30.7981C23.7256 30.5481 23.8195 30.2735 23.8598 29.9887L24.0847 30.1192C24.4409 30.3253 24.845 30.4342 25.2566 30.4347C25.4657 30.4346 25.6738 30.4071 25.8758 30.3529C26.1756 30.2742 26.4568 30.1366 26.703 29.9482C26.9491 29.7598 27.1553 29.5242 27.3095 29.2553C27.4236 29.056 27.508 28.8412 27.5602 28.6176C27.6833 28.6371 27.8078 28.647 27.9324 28.6471C28.3643 28.6467 28.7885 28.5333 29.1629 28.3181C29.5373 28.103 29.8488 27.7935 30.0665 27.4205C30.2714 27.0634 30.3841 26.6608 30.3946 26.2492C30.7776 26.1997 31.1439 26.0622 31.4649 25.8474C31.7858 25.6326 32.0526 25.3463 32.2444 25.0111C32.4361 24.6759 32.5476 24.3008 32.5701 23.9153C32.5926 23.5298 32.5254 23.1443 32.3739 22.789C32.6974 22.7034 33.0161 22.6004 33.3285 22.4805C33.4325 22.7207 33.6044 22.9252 33.8231 23.0689C34.0419 23.2125 34.2978 23.2891 34.5595 23.2891C34.7355 23.289 34.9097 23.2537 35.0719 23.1852L39.1741 21.4736C39.5015 21.3359 39.7612 21.0745 39.8965 20.7461C40.0318 20.4178 40.0318 20.0493 39.8966 19.721L35.3816 8.90755C35.2449 8.57986 34.9837 8.31987 34.6554 8.18474C34.327 8.04962 33.9585 8.05043 33.6308 8.187L29.5285 9.8988C29.2012 10.0367 28.9416 10.2983 28.8063 10.6267C28.671 10.9551 28.6709 11.3237 28.8061 11.6522L28.8319 11.706C26.4509 11.3724 23.8598 11.0584 21.1177 10.7716C20.7227 10.7256 20.3227 10.7877 19.9603 10.9513C19.8387 11.0044 19.7207 11.0577 19.6064 11.1112C17.078 10.687 14.2768 10.9767 11.2548 11.9737C11.3301 11.6639 11.2925 11.3373 11.1486 11.0527C11.0047 10.7682 10.764 10.5443 10.4698 10.4212L6.36703 8.70896C6.03935 8.57254 5.67092 8.57176 5.34266 8.70679C5.01441 8.84181 4.75317 9.10161 4.61632 9.42911L0.101401 20.2436C-0.0338468 20.5718 -0.0337987 20.9403 0.101535 21.2685C0.236869 21.5968 0.496509 21.8582 0.823823 21.9958L4.92609 23.7075C5.08824 23.7759 5.26243 23.8112 5.43843 23.8114C5.61419 23.8113 5.78823 23.7768 5.9507 23.7098C6.20812 23.6047 6.42601 23.4213 6.57359 23.1857L8.44968 24.2645L8.12937 24.8207C7.94451 25.1395 7.85585 25.505 7.8741 25.8731C7.89234 26.2412 8.01671 26.5962 8.23219 26.8951C8.44768 27.1941 8.74507 27.4244 9.0885 27.5581C9.43193 27.6918 9.80672 27.7233 10.1677 27.6488C10.1641 27.9441 10.2192 28.2371 10.3296 28.5109C10.4401 28.7848 10.6037 29.034 10.8111 29.2442C11.0184 29.4544 11.2654 29.6214 11.5377 29.7356C11.8101 29.8497 12.1023 29.9088 12.3976 29.9093C12.5966 29.9088 12.7948 29.8827 12.9873 29.8318C13.2144 29.7698 13.4307 29.6734 13.6286 29.5458C13.7623 29.8846 13.9948 30.1753 14.2958 30.3804C14.5968 30.5855 14.9524 30.6954 15.3166 30.6958C15.4785 30.6956 15.6396 30.6743 15.7959 30.6324C15.9287 30.5959 16.0572 30.5451 16.1791 30.4809C16.3021 30.7438 16.4974 30.9663 16.7422 31.1224C16.9869 31.2784 17.2711 31.3616 17.5613 31.3622C17.8189 31.3621 18.0724 31.2974 18.2984 31.1739C18.5244 31.0504 18.7158 30.872 18.855 30.6553L20.5247 31.6183C20.8626 31.815 21.2468 31.9183 21.6378 31.9176C21.8355 31.9172 22.0323 31.8911 22.2234 31.8401Z" fill="#5DA9FF" stroke="#5DA9FF" stroke-width="0.4"/>
</g>
<defs>
<clipPath id="clip0_38_7766">
<rect width="40" height="40" fill="white"/>
</clipPath>
</defs>
</svg>
